<svg viewBox="0 0 310 570" fill="none" xmlns="http://www.w3.org/2000/svg"><g opacity=".7"><path opacity=".7" d="M309.5 285c0 157.101-134.066 284.5-299.5 284.5S-289.5 442.101-289.5 285-155.434.5 10 .5 309.5 127.899 309.5 285z" stroke="url(#paint0_linear)"/><path opacity=".7" d="M222.902 285c0 111.666-95.295 202.232-212.902 202.232-117.607 0-212.902-90.566-212.902-202.232S-107.607 82.768 10 82.768c117.607 0 212.902 90.566 212.902 202.232z" stroke="url(#paint1_linear)"/><path opacity=".7" d="M266.201 285.49c0 134.113-114.45 242.876-255.686 242.876-141.235 0-255.685-108.763-255.685-242.876S-130.72 42.613 10.515 42.613c141.236 0 255.686 108.764 255.686 242.877z" stroke="url(#paint2_linear)"/><path opacity=".7" d="M136.304 285.49c0 65.96-56.293 119.474-125.788 119.474-69.496 0-125.789-53.514-125.789-119.474 0-65.96 56.293-119.474 125.788-119.474 69.496 0 125.789 53.514 125.789 119.474z" stroke="url(#paint3_linear)"/><path opacity=".7" d="M179.603 285c0 88.948-75.909 161.098-169.603 161.098S-159.603 373.948-159.603 285c0-88.948 75.91-161.098 169.603-161.098 93.694 0 169.603 72.15 169.603 161.098z" stroke="url(#paint4_linear)"/></g><defs><linearGradient id="paint0_linear" x1="10" y1="0" x2="10" y2="570" gradientUnits="userSpaceOnUse"><stop stop-color="#8A4161"/><stop offset=".536" stop-color="#714382"/><stop offset="1" stop-color="#5D3BAE"/></linearGradient><linearGradient id="paint1_linear" x1="10" y1="82.268" x2="10" y2="487.732" gradientUnits="userSpaceOnUse"><stop stop-color="#8A4161"/><stop offset=".536" stop-color="#714382"/><stop offset="1" stop-color="#5D3BAE"/></linearGradient><linearGradient id="paint2_linear" x1="10.515" y1="42.113" x2="10.515" y2="528.866" gradientUnits="userSpaceOnUse"><stop stop-color="#8A4161"/><stop offset=".536" stop-color="#714382"/><stop offset="1" stop-color="#5D3BAE"/></linearGradient><linearGradient id="paint3_linear" x1="10.515" y1="165.516" x2="10.515" y2="405.464" gradientUnits="userSpaceOnUse"><stop stop-color="#8A4161"/><stop offset=".536" stop-color="#714382"/><stop offset="1" stop-color="#5D3BAE"/></linearGradient><linearGradient id="paint4_linear" x1="10" y1="123.402" x2="10" y2="446.598" gradientUnits="userSpaceOnUse"><stop stop-color="#8A4161"/><stop offset=".536" stop-color="#714382"/><stop offset="1" stop-color="#5D3BAE"/></linearGradient></defs></svg>