<svg viewBox="0 0 319 294" fill="none" xmlns="http://www.w3.org/2000/svg"><g opacity=".8"><path opacity=".5" d="M119.922 212.201c-27.838-14.482-48.605-34.91-59.688-56.207-11.085-21.301-12.462-43.417-1.648-61.356s31.833-28.404 57.176-30.755c25.338-2.35 54.939 3.423 82.778 17.905 27.839 14.481 48.605 34.909 59.688 56.206 11.085 21.301 12.463 43.418 1.649 61.356-10.814 17.939-31.834 28.404-57.176 30.755-25.339 2.351-54.94-3.423-82.779-17.904z" stroke="url(#paint0_linear)"/><path opacity=".5" d="M131.142 193.886c-20.504-10.667-35.88-25.567-44.176-41.012-8.299-15.449-9.49-31.382-1.763-44.198 7.725-12.816 22.972-20.199 41.488-21.699 18.511-1.5 40.221 2.892 60.725 13.559 20.505 10.666 35.88 25.566 44.176 41.011 8.299 15.449 9.489 31.383 1.764 44.198-7.726 12.816-22.973 20.199-41.489 21.699-18.51 1.5-40.221-2.892-60.725-13.558z" stroke="url(#paint1_linear)"/><path opacity=".5" d="M142.796 174.493c-12.174-6.333-21.274-15.21-26.158-24.42-4.886-9.214-5.53-18.704-.925-26.342 4.604-7.639 13.651-12.088 24.661-13.032 11.005-.945 23.908 1.624 36.082 7.957s21.274 15.21 26.159 24.421c4.886 9.214 5.53 18.703.925 26.342-4.605 7.638-13.651 12.087-24.662 13.032-11.005.944-23.908-1.625-36.082-7.958z" stroke="url(#paint2_linear)"/></g><defs><linearGradient id="paint0_linear" x1="260.32" y1="199.581" x2="65.529" y2="82.154" gradientUnits="userSpaceOnUse"><stop stop-color="#A8A5CE"/><stop offset="1" stop-color="#EE9450"/></linearGradient><linearGradient id="paint1_linear" x1="233.799" y1="185.976" x2="90.204" y2="99.412" gradientUnits="userSpaceOnUse"><stop stop-color="#A8A5CE"/><stop offset="1" stop-color="#EE9450"/></linearGradient><linearGradient id="paint2_linear" x1="203.983" y1="169.649" x2="118.51" y2="118.123" gradientUnits="userSpaceOnUse"><stop stop-color="#A8A5CE"/><stop offset="1" stop-color="#EE9450"/></linearGradient></defs></svg>