<svg width="14" height="14" fill="none" xmlns="http://www.w3.org/2000/svg"><g clip-path="url(#clip0)" fill-rule="evenodd" clip-rule="evenodd" fill="#fff"><path d="M2.92 3.94a.73.73 0 00-.73.73v6.41a.73.73 0 00.73.73h6.41a.73.73 0 00.73-.73v-3.5a.44.44 0 01.88 0v3.5a1.6 1.6 0 01-1.6 1.6H2.91a1.6 1.6 0 01-1.6-1.6V4.67a1.6 1.6 0 011.6-1.6h3.5a.44.44 0 010 .87h-3.5zM8.31 1.75c0-.24.2-.44.44-.44h3.5c.24 0 .44.2.44.44v3.5a.44.44 0 01-.88 0V2.19H8.75a.44.44 0 01-.44-.44z"/><path d="M12.56 1.44c.17.17.17.45 0 .62L6.14 8.48a.44.44 0 01-.62-.62l6.42-6.42a.44.44 0 01.62 0z"/></g><defs><clipPath id="clip0"><path fill="#fff" d="M0 0h14v14H0z"/></clipPath></defs></svg>