<svg width="16" height="16" fill="none" xmlns="http://www.w3.org/2000/svg"><path opacity=".9" d="M8 0a8.1 8.1 0 00-8 8.2A8.2 8.2 0 005.47 16c.4.07.53-.18.53-.4v-1.53c-2.23.5-2.7-.96-2.7-.96-.35-.95-.88-1.2-.88-1.2-.72-.52.06-.5.06-.5.8.05 1.23.84 1.23.84.71 1.26 1.87.9 2.32.68.08-.53.28-.89.51-1.1-1.77-.2-3.64-.9-3.64-4.05 0-.9.3-1.63.82-2.2a3 3 0 01.08-2.18s.67-.21 2.2.85a7.3 7.3 0 014 0c1.54-1.06 2.2-.85 2.2-.85a3 3 0 01.08 2.17c.52.58.83 1.3.83 2.2 0 3.16-1.87 3.85-3.66 4.05.29.26.55.76.55 1.52v2.25c0 .22.13.48.54.4A8.2 8.2 0 0016 8.19 8.1 8.1 0 008 0z" fill="#001B33"/></svg>