<svg width="32" height="32" fill="none" xmlns="http://www.w3.org/2000/svg"><path d="M16 3.07a12.87 12.87 0 00-4.07 25.09c.64.11.85-.28.85-.62v-2.4c-3.58.78-4.33-1.52-4.33-1.52-.58-1.49-1.43-1.88-1.43-1.88-1.16-.8.1-.79.1-.79 1.29.1 1.97 1.33 1.97 1.33 1.15 1.97 3 1.4 3.74 1.07.12-.83.45-1.4.82-1.72-2.85-.32-5.86-1.43-5.86-6.37 0-1.4.5-2.55 1.33-3.46a4.6 4.6 0 01.12-3.4s1.08-.34 3.54 1.32a12.04 12.04 0 016.45 0c2.46-1.66 3.54-1.32 3.54-1.32a4.6 4.6 0 01.12 3.4c.83.9 1.33 2.05 1.33 3.46 0 4.95-3 6.04-5.88 6.35.46.4.88 1.19.88 2.38v3.53c0 .34.2.75.86.62A12.88 12.88 0 0016 3.07z" fill="#fff"/></svg>