<svg width="24" height="12" viewBox="0 0 24 12" fill="none" xmlns="http://www.w3.org/2000/svg">
<path d="M22.5424 0.237387L11.9991 10.0879L1.45577 0.237387C1.2942 0.0863108 1.0773 0.00173197 0.851435 0.00173197C0.625575 0.00173197 0.408675 0.0863108 0.247101 0.237387C0.168867 0.310766 0.106715 0.39835 0.064285 0.495011C0.0218549 0.591672 0 0.695466 0 0.800314C0 0.905162 0.0218549 1.00896 0.064285 1.10562C0.106715 1.20228 0.168867 1.28986 0.247101 1.36324L11.3676 11.7541C11.5365 11.9118 11.7631 12 11.9991 12C12.235 12 12.4616 11.9118 12.6305 11.7541L23.751 1.36497C23.8298 1.29154 23.8925 1.20374 23.9352 1.10676C23.978 1.00978 24 0.90558 24 0.800314C24 0.695049 23.978 0.59085 23.9352 0.493868C23.8925 0.396887 23.8298 0.309088 23.751 0.235655C23.5895 0.0845781 23.3726 0 23.1467 0C22.9209 0 22.704 0.0845781 22.5424 0.235655V0.237387Z" fill="#F2F4F5"/>
</svg>
