<svg viewBox="0 0 50 50" fill="none" xmlns="http://www.w3.org/2000/svg"><path d="M25 39a14 14 0 110-28 14 14 0 010 28zm0-26.66a12.67 12.67 0 100 25.33 12.67 12.67 0 000-25.33z" fill="#A8A5CE" stroke="#A8A5CE"/><path d="M27.33 49h-4.66a2.23 2.23 0 01-2.22-2.22v-2.19a19.84 19.84 0 01-6.24-2.62l-1.3 1.34a2.22 2.22 0 01-3.14 0l-3.3-3.34a2.22 2.22 0 010-3.14l1.34-1.33a20.1 20.1 0 01-2.43-5.92H3.22A2.22 2.22 0 011 27.33v-4.66a2.23 2.23 0 012.22-2.22h2.19a19.93 19.93 0 012.66-6.32l-1.6-1.6a2.23 2.23 0 010-3.15l3.3-3.3a2.22 2.22 0 013.14 0l1.7 1.7a20 20 0 015.83-2.37V3.22A2.23 2.23 0 0122.67 1h4.66a2.23 2.23 0 012.22 2.22v2.19a20.1 20.1 0 015.92 2.42l1.75-1.75a2.22 2.22 0 013.14 0l3.3 3.3a2.23 2.23 0 010 3.15l-1.68 1.68a19.84 19.84 0 012.62 6.24h2.19A2.23 2.23 0 0149 22.67v4.66a2.23 2.23 0 01-2.22 2.22h-2.19a20.09 20.09 0 01-2.37 5.84l1.45 1.44a2.22 2.22 0 010 3.14l-3.3 3.34a2.22 2.22 0 01-3.14 0l-1.34-1.34a19.93 19.93 0 01-6.31 2.67v2.19A2.23 2.23 0 0127.33 49zm-13.2-8.55c.13 0 .26.04.37.12a18.61 18.61 0 006.75 2.83.67.67 0 01.53.67v2.72a.89.89 0 00.89.88h4.66a.89.89 0 00.89-.89v-2.73a.67.67 0 01.53-.66c2.45-.5 4.77-1.48 6.83-2.89a.67.67 0 01.85.08l1.73 1.75a.9.9 0 001.26 0L42.75 39a.9.9 0 000-1.26l-1.82-1.82a.67.67 0 01-.08-.83 18.63 18.63 0 002.58-6.37.67.67 0 01.67-.53h2.73a.89.89 0 00.84-.86v-4.66a.89.89 0 00-.89-.89h-2.73a.67.67 0 01-.66-.53 18.61 18.61 0 00-2.84-6.75.67.67 0 01.1-.83l2.07-2.08a.89.89 0 000-1.25l-3.33-3.3a.9.9 0 00-1.26 0L36 9.17a.67.67 0 01-.83.08 18.6 18.6 0 00-6.45-2.66.67.67 0 01-.53-.67v-2.7a.89.89 0 00-.86-.89h-4.66a.89.89 0 00-.89.89v2.73a.67.67 0 01-.53.66 18.63 18.63 0 00-6.38 2.59.67.67 0 01-.82-.09L11.97 7a.9.9 0 00-1.26 0l-3.3 3.33a.89.89 0 000 1.26l2 2a.67.67 0 01.08.84 18.52 18.52 0 00-2.89 6.82.67.67 0 01-.67.53H3.22a.89.89 0 00-.89.89v4.66a.89.89 0 00.89.89h2.73a.67.67 0 01.66.53c.48 2.3 1.38 4.49 2.67 6.45a.67.67 0 01-.09.83l-1.74 1.74a.9.9 0 000 1.26l3.3 3.34a.9.9 0 001.26 0l1.66-1.72c.12-.13.28-.2.46-.2z" fill="#A8A5CE" stroke="#A8A5CE"/><path d="M25 26.33a1.33 1.33 0 100-2.67 1.33 1.33 0 000 2.67z" fill="#A8A5CE" stroke="#A8A5CE"/><path d="M25 25.66a.67.67 0 01-.22-1.3l8.76-3.18a.67.67 0 11.46 1.25l-8.77 3.2a.67.67 0 01-.23.03z" fill="#A8A5CE" stroke="#A8A5CE"/><path d="M27.66 29.5a.67.67 0 01-.54-.29l-2.67-3.82a.67.67 0 011.1-.76l2.66 3.82a.67.67 0 01-.55 1.04z" fill="#A8A5CE" stroke="#A8A5CE"/></svg>