<svg viewBox="0 0 70 70" fill="none" xmlns="http://www.w3.org/2000/svg">
    <mask id="mask0" mask-type="alpha" maskUnits="userSpaceOnUse" x="0" y="0" width="70" height="70">
        <path d="M15.7907 17.8608C15.7907 17.2209 15.2719 16.7021 14.6321 16.7021C13.9923 16.7021 13.4735 17.2209 13.4735 17.8608C13.4735 18.5006 13.9923 19.0193 14.6321 19.0193C15.2719 19.0366 15.7907 18.5006 15.7907 17.8608Z" fill="#A8A5CE"/>
        <path d="M15.4907 22.8418C15.0411 22.8418 14.678 23.2049 14.678 23.6545C14.678 24.1042 15.0411 24.4673 15.4907 24.4673C15.9403 24.4673 16.3035 24.1042 16.3035 23.6545C16.2862 23.2049 15.923 22.8418 15.4907 22.8418Z" fill="#A8A5CE"/>
        <path d="M12.4728 34.049L10.8473 33.5821C10.8127 33.5821 10.7954 33.5475 10.7954 33.5302L10.2421 31.922C10.2075 31.8528 10.1037 31.8528 10.0864 31.922L9.61955 33.5475C9.61955 33.5821 9.58497 33.5994 9.56767 33.5994L7.95947 34.1527C7.8903 34.1873 7.8903 34.2911 7.95947 34.3084L9.58496 34.7753C9.61955 34.7753 9.63685 34.8098 9.63685 34.8271L10.1902 36.4353C10.2248 36.5045 10.3285 36.5045 10.3458 36.4353L10.8127 34.8098C10.8127 34.7753 10.8473 34.758 10.8646 34.758L12.4728 34.2046C12.5593 34.17 12.5593 34.0663 12.4728 34.049Z" fill="#A8A5CE"/>
        <path d="M47.0026 53.7077C46.8988 53.7769 46.7951 53.8461 46.6913 53.9152C43.2328 55.8174 39.1864 57.0798 34.9151 57.0798C30.6612 57.0798 26.7358 55.8174 23.2946 53.9152C23.1736 53.8461 23.0525 53.7769 22.9487 53.6904C20.7526 55.0911 18.9023 56.7685 17.3633 58.8263C22.2225 62.4577 28.2921 64.6193 34.967 64.6538C41.6073 64.6884 47.6597 62.4923 52.6053 58.8609C51.049 56.7858 49.216 55.1084 47.0026 53.7077Z" fill="#A8A5CE"/>
        <path d="M46.1507 15.493C46.7905 15.493 47.3093 14.9742 47.3093 14.3344C47.3093 13.6946 46.7905 13.1758 46.1507 13.1758C45.5108 13.1758 44.9921 13.6946 44.9921 14.3344C44.9921 14.9742 45.5108 15.493 46.1507 15.493Z" fill="#A8A5CE"/>
        <path d="M27.2328 36.2999C26.2471 36.1962 25.3652 36.9224 25.2615 37.9081C25.1577 38.8938 25.884 39.7757 26.8697 39.8795C27.8553 39.9832 28.7372 39.2569 28.841 38.2713C28.9275 37.2856 28.2185 36.4037 27.2328 36.2999Z" fill="#A8A5CE"/>
        <path d="M40.6763 31.4243C39.4485 31.9604 38.8779 33.3784 39.4139 34.6234C39.95 35.8512 41.368 36.4218 42.613 35.8858C43.8408 35.3497 44.4115 33.9317 43.8754 32.6867C43.322 31.4589 41.904 30.8882 40.6763 31.4243Z" fill="#A8A5CE"/>
        <path d="M63.5813 30.5026L62.3016 30.1394C62.2843 30.1394 62.267 30.1221 62.2497 30.1048L61.8347 28.8425C61.8174 28.7733 61.731 28.7906 61.7137 28.8425L61.3505 30.1221C61.3505 30.1394 61.3332 30.1567 61.3159 30.174L60.0709 30.6063C60.0017 30.6236 60.019 30.7101 60.0709 30.7274L61.3505 31.0905C61.3678 31.0905 61.3851 31.1078 61.4024 31.1251L61.8347 32.3875C61.852 32.4566 61.9385 32.4393 61.9558 32.3875L62.3189 31.1078C62.3189 31.0905 62.3362 31.0732 62.3535 31.0559L63.5985 30.6236C63.6504 30.6063 63.6504 30.5199 63.5813 30.5026Z" fill="#A8A5CE"/>
        <path d="M34.9999 0C15.667 0 0 15.667 0 35C0 54.333 15.667 70 34.9999 70C54.3329 70 69.9999 54.333 69.9999 35C69.9999 15.667 54.3329 0 34.9999 0ZM34.9654 67.2505C17.1541 67.2159 2.7495 52.7594 2.78408 34.9654C2.81867 17.1714 17.2752 2.74951 35.0691 2.78409C52.8803 2.81868 67.285 17.2752 67.2504 35.0692C67.2158 52.8631 52.7593 67.2678 34.9654 67.2505Z" fill="#A8A5CE"/>
        <path d="M59.9094 23.7783L57.9035 23.2077C57.8689 23.1904 57.8516 23.1731 57.8343 23.1385L57.1426 21.1672C57.1081 21.0634 56.9697 21.0807 56.9524 21.1672L56.3818 23.1731C56.3645 23.2077 56.3472 23.225 56.3126 23.2423L54.3585 23.934C54.2721 23.9686 54.2721 24.1069 54.3585 24.1242L56.3645 24.6948C56.3991 24.7121 56.4164 24.7294 56.4336 24.764L57.1253 26.7354C57.1599 26.8391 57.2983 26.8218 57.3156 26.7354L57.8862 24.7294C57.9035 24.6948 57.9208 24.6776 57.9554 24.6603L59.9094 23.9686C60.0132 23.934 60.0132 23.7956 59.9094 23.7783Z" fill="#A8A5CE"/>
        <path d="M35.0145 16.7021C24.8984 16.7021 16.7018 24.8988 16.7018 35.0149C16.7018 45.131 24.8984 53.3276 35.0145 53.3276C45.1306 53.3276 53.3272 45.131 53.3272 35.0149C53.3445 24.8988 45.1306 16.7021 35.0145 16.7021ZM35.0145 50.6127C27.5787 50.6127 21.5437 44.5776 21.5437 37.1419C21.5437 33.5969 22.9271 30.3632 25.1751 27.9596C25.8322 27.2333 25.0886 25.9709 24.7774 25.4867C24.4661 25.0544 24.2067 24.5011 24.4142 24.1725C24.6736 23.7748 25.1751 23.7229 25.6766 23.8267C27.1637 24.1379 28.2704 24.8469 28.4607 24.6048C28.5817 24.4665 28.3223 24.0515 28.1667 23.8267C27.8035 23.3079 27.7863 22.7199 28.0975 22.4951C28.4261 22.2703 28.9967 22.3222 29.3253 22.4778C29.7922 22.6853 30.3282 22.9101 31.435 23.4289C31.8327 23.6018 32.8702 23.7748 34.1845 23.6883C34.4611 23.671 34.7378 23.6537 35.0318 23.6537C42.4676 23.6537 48.5026 29.6888 48.5026 37.1246C48.4853 44.5776 42.4676 50.6127 35.0145 50.6127Z" fill="#A8A5CE"/>
        <path d="M57.2347 42.3301C56.664 42.3301 56.1971 42.797 56.1971 43.3676C56.1971 43.9383 56.664 44.4052 57.2347 44.4052C57.8054 44.4052 58.2723 43.9383 58.2723 43.3676C58.2723 42.797 57.8054 42.3301 57.2347 42.3301Z" fill="#A8A5CE"/>
    </mask>
    <g mask="url(#mask0)">
        <rect width="69.9999" height="69.9999" fill="url(#paint0_linear)"/>
    </g>
    <defs>
        <linearGradient id="paint0_linear" x1="0" y1="34.9999" x2="71.6934" y2="34.9999" gradientUnits="userSpaceOnUse">
            <stop stop-color="#65CBA0"/>
            <stop offset="0.555875" stop-color="#CF88A0"/>
            <stop offset="1" stop-color="#5CA2B1"/>
        </linearGradient>
    </defs>
</svg>
