<svg viewBox="0 0 50 50" fill="none" xmlns="http://www.w3.org/2000/svg"><path d="M24.81 20.19c.54 0 1.06.22 1.44.6.38.4.6.92.6 1.47 0 .15.05.3.16.4a.56.56 0 00.8 0c.11-.1.17-.25.17-.4 0-.77-.27-1.52-.77-2.1a3.16 3.16 0 00-1.93-1.09V17.9a.56.56 0 00-.97-.4c-.1.1-.16.25-.16.4v1.2a3.26 3.26 0 00-1.46 5.55c.58.54 1.34.83 2.12.83a2.01 2.01 0 011.88 1.28 2.1 2.1 0 01-.44 2.25 2.03 2.03 0 01-3.48-1.46.56.56 0 00-.97-.4c-.1.1-.16.25-.16.4a3.17 3.17 0 002.5 3.15v1.14c0 .15.07.3.17.4a.56.56 0 00.8 0c.11-.1.17-.25.17-.4v-1.1c.8-.12 1.51-.54 2-1.18a3.26 3.26 0 00-.31-4.37 3.14 3.14 0 00-2.16-.86c-.54 0-1.06-.22-1.44-.6a2.09 2.09 0 010-2.93c.38-.4.9-.61 1.44-.61z" fill="#A8A5CE" stroke="#A8A5CE"/><path d="M45.74 21.74a3.26 3.26 0 00-3.19 2.59H41.3a16.25 16.25 0 00-4.37-10.41l.9-.9a3.26 3.26 0 10-.82-.8l-.89.88a16.25 16.25 0 00-10.74-4.38V7.49a3.26 3.26 0 10-1.15-.07v1.3c-3.84.19-7.5 1.72-10.31 4.35l-.9-.9a3.26 3.26 0 10-.8.82l.88.89a16.25 16.25 0 00-4.4 10.54H7.46a3.26 3.26 0 100 1.15H8.7a16.25 16.25 0 004.45 10.64l-.86.86a3.25 3.25 0 10.79.84l.88-.89a16.25 16.25 0 0010.37 4.3v1.23a3.26 3.26 0 101.15-.03v-1.2c4-.11 7.83-1.7 10.74-4.47l.85.85a3.26 3.26 0 10.84-.78l-.89-.89a16.25 16.25 0 004.28-10.55h1.22a3.26 3.26 0 103.22-3.74zM4.26 27.11a2.1 2.1 0 110-4.22 2.1 2.1 0 010 4.22zM38.18 8.84a2.1 2.1 0 112.98 2.98 2.1 2.1 0 01-2.98-2.98zM22.89 4.26a2.1 2.1 0 114.22 0 2.1 2.1 0 01-4.22 0zM8.84 11.82a2.1 2.1 0 112.98-2.98 2.1 2.1 0 01-2.98 2.98zm2.98 29.34a2.1 2.1 0 11-2.98-2.99 2.1 2.1 0 012.98 2.99zm15.29 4.58a2.11 2.11 0 11-4.22 0 2.11 2.11 0 014.22 0zm14.05-7.57a2.1 2.1 0 11-2.98 2.99 2.1 2.1 0 012.98-2.99zM25 40.18c-8.36 0-15.16-6.8-15.16-15.16S16.64 9.86 25 9.86s15.16 6.8 15.16 15.16S33.36 40.18 25 40.18zm20.74-13.07a2.1 2.1 0 110-4.22 2.1 2.1 0 010 4.22z" fill="#A8A5CE" stroke="#A8A5CE"/><path d="M24.77 13c-2.32 0-4.6.7-6.54 2.01a12.07 12.07 0 00-1.78 18.35 11.73 11.73 0 0012.83 2.58 11.8 11.8 0 005.28-4.4A12.03 12.03 0 0033.1 16.5c-2.2-2.24-5.2-3.5-8.32-3.5zm0 22.7c-2.1 0-4.15-.64-5.9-1.82a10.9 10.9 0 01-1.61-16.57 10.6 10.6 0 0111.58-2.33c1.94.81 3.6 2.2 4.77 3.96a10.87 10.87 0 01-1.32 13.6c-2 2.01-4.7 3.15-7.52 3.15z" fill="#A8A5CE" stroke="#A8A5CE"/></svg>