<svg viewBox="0 0 184 23" fill="none" xmlns="http://www.w3.org/2000/svg"><path d="M37.93 2.57c-.92-.3-2-.43-3.23-.43h-6.28l-.06.3-5.25 19.35h3.53l1.75-6.47h3.83c1.39 0 2.71-.17 3.87-.46a9.4 9.4 0 003.07-1.42 6.32 6.32 0 002.04-2.35c.47-.9.73-1.98.73-3.17 0-1.59-.5-2.88-1.52-3.9a6.01 6.01 0 00-2.48-1.45zm-.92 8.45c-1.06.73-2.6 1.13-4.66 1.13h-3.1l1.82-6.74h3.56c1.49 0 2.55.33 3.17.96.43.43.66.99.66 1.71 0 1.3-.46 2.25-1.45 2.94zM14.76 2.14c-1.03 0-1.99.13-2.88.43-.86.3-1.65.7-2.27 1.19a5.65 5.65 0 00-1.56 1.88 5.22 5.22 0 00-.56 2.34 4.1 4.1 0 001.45 3.27c.47.4 1 .8 1.66 1.13.62.33 1.38.66 2.2.99.54.2.9.4 1.26.6a4.27 4.27 0 011.29.8c.2.18.36.38.46.58.1.2.13.43.13.66 0 .4-.06.73-.23 1.03-.2.33-.43.59-.76.82-.33.23-.85.5-1.22.6-.72.2-1.78.2-2.54.2l-7.03-.04-.86 3.1h8.81c1.06 0 2.02-.13 2.88-.39.86-.26 1.65-.7 2.34-1.22a6.42 6.42 0 001.62-1.92 5.15 5.15 0 00.23-4.26 4.33 4.33 0 00-1.02-1.45c-.43-.43-.96-.8-1.59-1.16-.6-.33-1.32-.66-2.08-.96-.5-.2-.89-.4-1.29-.56-.13-.06-.23-.13-.36-.16a6.72 6.72 0 01-1.12-.66c-.23-.2-.43-.4-.53-.6-.1-.2-.13-.43-.13-.66 0-.3.06-.6.23-.86.16-.3.36-.56.66-.8.3-.22.7-.42 1.12-.59a4.84 4.84 0 011.59-.23h7.33l.86-3.1h-8.1zM79.27 16.01A6.66 6.66 0 0174 18.72c-1.72 0-3.1-.5-4-1.45a5.02 5.02 0 01-1.18-3.83c.23-4.73 3.4-8.13 7.53-8.13 2.17 0 4.09 1.16 4.95 3l.2.43 2.64-1.58.3-.2-.14-.33c-1.25-2.77-4.06-4.46-7.56-4.5h-.1c-6.2 0-10.96 4.76-11.29 11.27a7.75 7.75 0 002.01 5.98c1.52 1.62 3.77 2.48 6.41 2.48a9.77 9.77 0 007.13-3.04l-1.62-2.8zM99.38 16.01a6.65 6.65 0 01-5.35 2.71c-.03 0 .04 0 0 0-1.65-.03-3.04-.53-3.9-1.45a5.12 5.12 0 01-1.18-3.8l13.9-.07.1-.26c.2-.53.56-1.52.76-2.61.4-2.45-.07-4.53-1.39-6.08a6.93 6.93 0 00-5.38-2.31c-6.11 0-11.13 4.92-11.5 11.2a7.76 7.76 0 001.92 5.88c1.49 1.61 3.8 2.5 6.5 2.57.1 0-.1 0 0 0 2.12 0 5.16-.86 7.17-3L99.38 16zm.83-5.45l-10.73-.03a7.53 7.53 0 016.6-5.25c.16 0 .33-.04.5-.04 1.32 0 2.4.47 3.07 1.3.72.95.92 2.34.56 4.02zM60.16 3.72c-1.3-1.05-3.1-1.55-5.55-1.55H47.84l1.88 3.2h4.46c1.55 0 2.74.3 3.47.86.69.57 1.05 1.4 1.05 2.45 0 .23-.03.5-.06.8-.04.29-.1.55-.17.78v.04c-.8-.23-1.68-.4-2.6-.6a20.5 20.5 0 00-3.57-.3c-1.22 0-2.35.17-3.37.47-1.02.33-1.95.8-2.7 1.35a6.54 6.54 0 00-1.82 2.22 6.47 6.47 0 00-.63 2.9c0 .9.16 1.69.53 2.35.33.66.79 1.25 1.38 1.68.57.46 1.23.8 1.95 1.03.73.23 1.52.36 2.31.36a8.8 8.8 0 003.4-.66c.6-.23 2.08-1.16 2.98-1.75l1.18 2.01h1.4l2.86-10.57c.1-.33.17-.7.2-1.02l.03-.3c.07-.43.1-.89.1-1.29a5.23 5.23 0 00-1.94-4.46zm-2.68 10.31c-.03.13-1.02 3.63-5.84 4.66 0 0-.53.13-1.3.13-.55 0-1.05-.07-1.51-.2a2.6 2.6 0 01-.86-.43c-.6-.5-.89-1.19-.89-2.05 0-.52.13-1.09.4-1.58a5.43 5.43 0 012.8-2.05c.63-.2 1.32-.3 2.12-.3 1.09 0 2.14.07 3.13.23.83.14 1.55.27 2.25.47l-.3 1.12zM168.92 5.84l-.96 3.57h10.37l-1.22 4.46h-10.37l-1.06 3.86h11.69l-1.25 4.63h-17.54l5.71-21.08h16.22l-1.26 4.6h-10.33v-.04zM159.2 1.24l-5.7 21.08h-4.86l-6.8-11.56-3.13 11.56h-5.85l5.71-21.08h4.89l6.77 11.5 3.1-11.5h5.88zM108.16 13.5C108.7 6.17 114.47.82 122.23.82c6.5 0 10.23 3.83 9.87 9.31-.53 7.34-6.3 12.69-14.06 12.69-6.5-.04-10.24-3.87-9.88-9.32zM126 10.46c.2-2.8-1.45-4.72-4.59-4.72-4.1 0-6.8 3.37-7.1 7.36-.2 2.81 1.46 4.73 4.6 4.73 4.09 0 6.8-3.37 7.1-7.37z" fill="#fff"/></svg>