<svg viewBox="0 0 1436 847" fill="none" xmlns="http://www.w3.org/2000/svg"><path opacity=".3" d="M508.61-7.34L-2-.5l-70.56 735.56c30.9 31.55 82.4 97.87 192.88 102.15 136.16 5.28 194.43-40.8 279-95.24 84.56-54.44 242.29-82.04 371.35 5.25 108.45 73.36 184.99 82.23 263.3 52.22 70.26-26.92 87.97-77.65 191.08-46.53 79.49 23.98 99.64 7.1 134.15-23.25 43.96-38.7 66.38-28.46 73.23-28.14-13.89-6.89-30.71-2.9-53.11 5.22-34.5 12.5-60 11.5-90.5-5.22-30.5-16.73-40.15-51.55-95-70.28-55.24-18.86-98.64-1.77-151-13-70.46-15.1-125-91.43-125-241 0-205.28-129.54-252.85-262.47-269.38C558.54 95.8 517.19 26.04 508.6-7.34z" fill="#000"/></svg>