<svg viewBox="0 0 1440 964" fill="none" xmlns="http://www.w3.org/2000/svg"><g opacity=".5" filter="url(#filter0_d)"><path d="M541.32-29.76L-69.84-12.82l-25.34 809.16c31.6 34.46 113.86 109.67 219.5 109.4 130.2-.33 249-43.51 325.96-109.4 76.96-65.88 225.5-104.64 354.48-11.32 108.39 78.42 181.97 84.95 254.62 47.16 65.18-33.9 78.63-92.45 179.06-61.85 77.42 23.59 95.5 3.45 126.35-32.7 39.3-46.08 61.37-35.48 67.93-35.44-13.72-7.19-24.26-6.69-46.1.23-34.52 10.93-59.5 8.71-83.63-6.93-24.12-15.64-52.75-58.97-106.32-77.72-53.95-18.89-70.55-5.62-121.24-15.96-68.22-13.9-100.75-70.8-128.25-239.76-37.53-230.7-167.8-286.54-295.7-299.17-93.12-9.2-99.73-55.05-110.16-92.64z" fill="#001B33"/></g><defs><filter id="filter0_d" x="-178" y="-145" width="1635.31" height="1108.57" filterUnits="userSpaceOnUse" color-interpolation-filters="sRGB"><feFlood flood-opacity="0" result="BackgroundImageFix"/><feColorMatrix in="SourceAlpha" values="0 0 0 0 0 0 0 0 0 0 0 0 0 0 0 0 0 0 127 0"/><feOffset dy="4"/><feGaussianBlur stdDeviation="7.5"/><feColorMatrix values="0 0 0 0 0 0 0 0 0 0.360784 0 0 0 0 0.701961 0 0 0 0.3 0"/><feBlend in2="BackgroundImageFix" result="effect1_dropShadow"/><feBlend in="SourceGraphic" in2="effect1_dropShadow" result="shape"/></filter></defs></svg>