<svg width="40" height="40" viewBox="0 0 40 40" fill="none" xmlns="http://www.w3.org/2000/svg">
<path d="M20.0285 6.7764e-05C8.9901 -0.0283816 0.0285172 8.90473 6.77641e-05 19.9715C-0.0283817 31.0099 8.90474 39.9715 19.9716 39.9999C31.01 40.0284 39.9715 31.0953 40 20.0284C40 8.99008 31.0669 0.0285172 20.0285 6.7764e-05ZM26.9132 6.45808C27.3115 6.45808 27.6245 6.77103 27.6245 7.16932C27.6245 7.56761 27.3115 7.88055 26.9132 7.88055C26.515 7.88055 26.202 7.56761 26.202 7.16932C26.1736 6.77103 26.515 6.45808 26.9132 6.45808ZM24.9218 3.38555C25.1778 3.38555 25.4054 3.61314 25.4054 3.86919C25.4054 4.12523 25.1778 4.35283 24.9218 4.35283C24.6657 4.35283 24.4381 4.12523 24.4381 3.86919C24.4381 3.58469 24.6657 3.38555 24.9218 3.38555ZM17.8379 3.69849C18.35 3.69849 18.7767 4.12523 18.7767 4.63732C18.7767 5.14941 18.35 5.57615 17.8379 5.57615C17.3258 5.57615 16.899 5.14941 16.899 4.63732C16.899 4.12523 17.3258 3.69849 17.8379 3.69849ZM6.03135 19.4879L5.03562 19.8293C5.00717 19.8293 5.00717 19.8578 5.00717 19.8578L4.72268 20.8819C4.72268 20.9388 4.63733 20.9388 4.63733 20.8819L4.26749 19.8862C4.26749 19.8578 4.23904 19.8578 4.23904 19.8578L3.21486 19.5733C3.15796 19.5733 3.15796 19.4879 3.21486 19.4879L4.21059 19.1465C4.23904 19.1465 4.23904 19.1181 4.23904 19.1181L4.52353 18.0939C4.52353 18.037 4.60888 18.037 4.60888 18.0939L4.95027 19.0896C4.95027 19.1181 4.97872 19.1181 4.97872 19.1181L6.0029 19.4026C6.0598 19.4026 6.0598 19.4595 6.03135 19.4879ZM6.62879 9.35992C6.62879 8.96163 6.94173 8.64869 7.34003 8.64869C7.73832 8.64869 8.05126 8.96163 8.05126 9.35992C8.05126 9.75821 7.73832 10.0712 7.34003 10.0712C6.94173 10.0712 6.62879 9.75821 6.62879 9.35992ZM7.88057 13.4566C7.59607 13.4566 7.36848 13.229 7.36848 12.9445C7.36848 12.6601 7.59607 12.4325 7.88057 12.4325C8.16506 12.4325 8.39266 12.6601 8.39266 12.9445C8.39266 13.229 8.16506 13.4566 7.88057 13.4566ZM19.9431 38.3783C15.818 38.3499 12.0626 37.0127 9.01854 34.7652C9.98583 33.485 11.1238 32.4608 12.4894 31.5789C12.5463 31.6358 12.6316 31.6643 12.6885 31.7212C14.8222 32.8876 17.2689 33.6842 19.8862 33.6842C22.532 33.6842 25.0356 32.916 27.1977 31.7212C27.2546 31.6927 27.34 31.6358 27.3969 31.5789C28.7625 32.4608 29.9004 33.485 30.8677 34.7652C27.8236 37.0127 24.0683 38.3783 19.9431 38.3783ZM20 31.3513C13.7412 31.3513 8.6487 26.2589 8.6487 20C8.6487 13.7411 13.7412 8.64869 20 8.64869C26.2589 8.64869 31.3514 13.7411 31.3514 20C31.3514 26.2589 26.2589 31.3513 20 31.3513ZM33.7696 25.8321C33.3997 25.8321 33.1152 25.5476 33.1152 25.1778C33.1152 24.8079 33.3997 24.5235 33.7696 24.5235C34.1394 24.5235 34.4239 24.8079 34.4239 25.1778C34.4239 25.5476 34.1394 25.8321 33.7696 25.8321ZM35.4481 13.1437L34.2248 13.5704C34.1963 13.5704 34.1963 13.5989 34.1963 13.6273L33.8549 14.8791C33.8265 14.936 33.7411 14.936 33.7411 14.8791L33.3144 13.6558C33.3144 13.6273 33.2859 13.6273 33.2575 13.6273L32.0057 13.2859C31.9488 13.2575 31.9488 13.1721 32.0057 13.1721L33.229 12.7454C33.2575 12.7454 33.2575 12.717 33.2575 12.6885L33.5989 11.4367C33.6273 11.3798 33.7127 11.3798 33.7127 11.4367L34.1394 12.6601C34.1394 12.6885 34.1679 12.6885 34.1963 12.6885L35.4481 13.0299C35.505 13.0299 35.505 13.1152 35.4481 13.1437ZM37.724 17.2689L36.9559 17.5534L36.9275 17.5818L36.6999 18.3784C36.6999 18.4068 36.643 18.4068 36.6145 18.3784L36.33 17.6102L36.3016 17.5818L35.505 17.3542C35.4765 17.3542 35.4765 17.2973 35.505 17.2689L36.2731 16.9844L36.3016 16.9559L36.5292 16.1593C36.5292 16.1309 36.5861 16.1309 36.6145 16.1593L36.899 16.9275L36.9275 16.9559L37.724 17.1835C37.7525 17.212 37.7525 17.2689 37.724 17.2689Z" fill="#415567"/>
<path d="M19.9998 12.9732C19.8291 12.9732 19.6584 12.9732 19.4877 13.0016C18.6626 13.0585 18.0367 12.9447 17.7807 12.8309C17.0979 12.518 16.7565 12.3757 16.472 12.2335C16.2729 12.1481 15.903 12.1197 15.7039 12.2619C15.5047 12.4042 15.5332 12.7456 15.7608 13.087C15.8461 13.2292 16.0168 13.4853 15.9599 13.5706C15.8461 13.7128 15.1633 13.2577 14.2245 13.087C13.9116 13.0301 13.5986 13.0585 13.4279 13.3146C13.2857 13.5137 13.4564 13.8551 13.6555 14.1396C13.8547 14.4525 14.3099 15.2207 13.9116 15.6759C12.5175 17.1552 11.6641 19.1751 11.6641 21.3657C11.6641 25.9745 15.3909 29.7299 20.0282 29.7299C24.637 29.7299 28.3923 26.003 28.3923 21.3657C28.3639 16.7 24.6086 12.9732 19.9998 12.9732ZM16.1591 22.0201C16.1022 22.6175 15.5616 23.0727 14.9358 23.0158C14.3383 22.9589 13.8831 22.4184 13.94 21.7925C13.9969 21.195 14.5375 20.7399 15.1633 20.7967C15.7892 20.8536 16.216 21.3942 16.1591 22.0201ZM24.6939 20.5407C23.9258 20.8821 23.0438 20.5123 22.7025 19.7441C22.3611 18.976 22.7309 18.0941 23.499 17.7527C24.2672 17.4113 25.1491 17.7811 25.4905 18.5492C25.8034 19.3174 25.4621 20.1993 24.6939 20.5407Z" fill="#415567"/>
</svg>
