<svg width="18" height="54" viewBox="0 0 18 54" fill="none" xmlns="http://www.w3.org/2000/svg">
<path d="M7.17469 50.373C6.75281 50.8691 6.13367 51.1172 5.31727 51.1172C4.64148 51.1172 4.12586 50.9219 3.77039 50.5312C3.41883 50.1367 3.24109 49.5547 3.23719 48.7852V44.6602H4.32117V48.7559C4.32117 49.7168 4.7118 50.1973 5.49305 50.1973C6.32117 50.1973 6.87195 49.8887 7.14539 49.2715V44.6602H8.22937V51H7.19812L7.17469 50.373ZM14.9972 47.9004C14.9972 48.8652 14.7765 49.6426 14.3351 50.2324C13.8937 50.8223 13.296 51.1172 12.5421 51.1172C11.7726 51.1172 11.1671 50.873 10.7257 50.3848V53.4375H9.64172V44.6602H10.632L10.6847 45.3633C11.1261 44.8164 11.7394 44.543 12.5245 44.543C13.2863 44.543 13.8878 44.8301 14.3292 45.4043C14.7745 45.9785 14.9972 46.7773 14.9972 47.8008V47.9004ZM13.9132 47.7773C13.9132 47.0625 13.7609 46.498 13.4562 46.084C13.1515 45.6699 12.7335 45.4629 12.2023 45.4629C11.546 45.4629 11.0538 45.7539 10.7257 46.3359V49.3652C11.0499 49.9434 11.546 50.2324 12.214 50.2324C12.7335 50.2324 13.1456 50.0273 13.4503 49.6172C13.7589 49.2031 13.9132 48.5898 13.9132 47.7773Z" fill="#EBEAF6"/>
<path d="M9 11L11.5981 17H6.40192L9 11Z" fill="white"/>
<rect x="0.95" y="0.95" width="16.1" height="28.1" rx="8.05" stroke="white" stroke-width="1.9"/>
</svg>
