<svg width="80" height="80" viewBox="0 0 80 80" fill="none" xmlns="http://www.w3.org/2000/svg">
<mask id="mask0" style="mask-type:alpha" maskUnits="userSpaceOnUse" x="0" y="0" width="80" height="80">
<g clip-path="url(#clip0)">
<path d="M18.0381 20.4117C18.0381 20.1483 17.96 19.8908 17.8137 19.6719C17.6674 19.4529 17.4595 19.2822 17.2161 19.1814C16.9728 19.0807 16.7051 19.0543 16.4468 19.1057C16.1885 19.157 15.9512 19.2839 15.765 19.4701C15.5788 19.6563 15.452 19.8936 15.4006 20.1519C15.3492 20.4102 15.3756 20.6779 15.4764 20.9212C15.5771 21.1645 15.7478 21.3725 15.9668 21.5188C16.1858 21.6651 16.4432 21.7432 16.7066 21.7432C16.8815 21.7436 17.0549 21.7095 17.2166 21.6427C17.3783 21.5759 17.5253 21.4778 17.649 21.3541C17.7727 21.2304 17.8708 21.0834 17.9376 20.9217C18.0044 20.76 18.0385 20.5866 18.0381 20.4117Z" fill="#F6F6F6"/>
<path d="M17.6908 26.0908C17.5072 26.0896 17.3274 26.143 17.1742 26.2441C17.021 26.3452 16.9012 26.4896 16.8301 26.6589C16.759 26.8281 16.7398 27.0147 16.7749 27.1949C16.81 27.3751 16.8978 27.5409 17.0272 27.6711C17.1566 27.8014 17.3217 27.8902 17.5017 27.9265C17.6817 27.9628 17.8684 27.9448 18.0381 27.8748C18.2078 27.8048 18.353 27.686 18.4551 27.5334C18.5572 27.3809 18.6117 27.2014 18.6117 27.0178C18.6117 26.773 18.5149 26.5381 18.3424 26.3645C18.1698 26.1908 17.9356 26.0924 17.6908 26.0908Z" fill="#F6F6F6"/>
<path d="M14.246 38.8963L12.383 38.3649C12.3683 38.3601 12.3548 38.3523 12.3433 38.3419C12.3318 38.3314 12.3227 38.3187 12.3166 38.3045L11.6795 36.4717C11.6733 36.4521 11.661 36.4351 11.6445 36.4229C11.6279 36.4108 11.6079 36.4043 11.5874 36.4043C11.5669 36.4043 11.5469 36.4108 11.5304 36.4229C11.5138 36.4351 11.5015 36.4521 11.4953 36.4717L10.9639 38.3377C10.96 38.3525 10.9524 38.3661 10.9419 38.3772C10.9313 38.3883 10.9181 38.3965 10.9035 38.4011L9.07373 39.0412C9.05418 39.0474 9.03711 39.0597 9.025 39.0763C9.01288 39.0928 9.00635 39.1128 9.00635 39.1333C9.00635 39.1538 9.01288 39.1738 9.025 39.1904C9.03711 39.2069 9.05418 39.2192 9.07373 39.2254L10.9367 39.7568C10.9515 39.7607 10.9651 39.7683 10.9762 39.7789C10.9873 39.7894 10.9955 39.8026 11.0001 39.8172L11.6403 41.65C11.6465 41.6696 11.6587 41.6867 11.6753 41.6988C11.6918 41.7109 11.7118 41.7174 11.7324 41.7174C11.7529 41.7174 11.7729 41.7109 11.7894 41.6988C11.806 41.6867 11.8182 41.6696 11.8244 41.65L12.3559 39.784C12.3596 39.7688 12.367 39.7547 12.3776 39.7431C12.3881 39.7315 12.4014 39.7227 12.4163 39.7176L14.246 39.0805C14.2656 39.0743 14.2827 39.062 14.2948 39.0454C14.3069 39.0289 14.3134 39.0089 14.3134 38.9884C14.3134 38.9679 14.3069 38.9479 14.2948 38.9313C14.2827 38.9148 14.2656 38.9025 14.246 38.8963Z" fill="#F6F6F6"/>
<path d="M53.7069 61.3638C53.5925 61.4526 53.4713 61.5324 53.3445 61.6023C49.3921 63.7824 44.7603 65.2256 39.8809 65.2105C35.0015 65.1954 30.5206 63.7642 26.5953 61.5872C26.4594 61.513 26.33 61.4271 26.2089 61.3306C23.7383 62.884 21.5737 64.8777 19.8228 67.2124C25.6442 71.535 32.7002 73.8732 39.9509 73.8824C47.2017 73.8917 54.2636 71.5715 60.096 67.2638C58.3458 64.9222 56.1801 62.9223 53.7069 61.3638Z" fill="#F6F6F6"/>
<path d="M52.7436 17.6939C53.0071 17.6945 53.2648 17.6169 53.4842 17.471C53.7036 17.325 53.8747 17.1173 53.976 16.874C54.0772 16.6307 54.104 16.3629 54.053 16.1044C54.0019 15.8459 53.8754 15.6084 53.6893 15.4218C53.5031 15.2353 53.2659 15.1082 53.0075 15.0566C52.7491 15.0049 52.4812 15.0311 52.2377 15.1318C51.9942 15.2325 51.7861 15.4032 51.6397 15.6222C51.4932 15.8413 51.415 16.0988 51.415 16.3623C51.4158 16.7147 51.556 17.0525 51.8049 17.302C52.0537 17.5514 52.3912 17.6923 52.7436 17.6939V17.6939Z" fill="#F6F6F6"/>
<path d="M36.0429 13.4126C36.384 13.4132 36.7176 13.3125 37.0015 13.1235C37.2855 12.9344 37.5069 12.6653 37.6379 12.3503C37.7688 12.0354 37.8034 11.6886 37.7372 11.354C37.671 11.0193 37.5071 10.7118 37.2661 10.4704C37.0251 10.229 36.7179 10.0645 36.3833 9.99771C36.0488 9.93094 35.702 9.9649 35.3868 10.0953C35.0716 10.2257 34.8021 10.4467 34.6126 10.7303C34.423 11.0139 34.3218 11.3473 34.3218 11.6885C34.3214 11.9147 34.3656 12.1389 34.4519 12.348C34.5382 12.5572 34.6649 12.7473 34.8248 12.9074C34.9847 13.0675 35.1745 13.1946 35.3835 13.2813C35.5925 13.3679 35.8166 13.4126 36.0429 13.4126V13.4126Z" fill="#F6F6F6"/>
<path d="M49.0933 11.1749C49.2725 11.1749 49.4476 11.1218 49.5966 11.0223C49.7455 10.9227 49.8616 10.7813 49.9302 10.6158C49.9988 10.4502 50.0167 10.2681 49.9818 10.0924C49.9468 9.91668 49.8605 9.75527 49.7338 9.62859C49.6072 9.50191 49.4458 9.41564 49.27 9.38069C49.0943 9.34574 48.9122 9.36367 48.7467 9.43223C48.5812 9.50079 48.4397 9.61689 48.3402 9.76586C48.2406 9.91482 48.1875 10.09 48.1875 10.2691C48.1875 10.5094 48.2829 10.7398 48.4528 10.9096C48.6227 11.0795 48.8531 11.1749 49.0933 11.1749Z" fill="#F6F6F6"/>
<path d="M31.1156 41.4722C30.7121 41.4307 30.3054 41.5098 29.9469 41.6994C29.5883 41.8891 29.2941 42.1809 29.1015 42.5379C28.9088 42.8948 28.8264 43.3009 28.8646 43.7047C28.9028 44.1085 29.0599 44.4919 29.316 44.8064C29.5722 45.1209 29.9159 45.3523 30.3036 45.4714C30.6914 45.5905 31.1057 45.592 31.4943 45.4755C31.8828 45.3591 32.2281 45.13 32.4864 44.8173C32.7447 44.5045 32.9044 44.1222 32.9454 43.7187C32.9994 43.1784 32.8372 42.6387 32.4943 42.2176C32.1514 41.7966 31.6557 41.5286 31.1156 41.4722Z" fill="#F6F6F6"/>
<path d="M46.463 35.9072C45.9592 36.1249 45.5312 36.487 45.2332 36.9479C44.9352 37.4088 44.7806 37.9478 44.7889 38.4965C44.7972 39.0453 44.9681 39.5793 45.2799 40.031C45.5917 40.4827 46.0304 40.8317 46.5406 41.034C47.0508 41.2363 47.6095 41.2828 48.1462 41.1675C48.6828 41.0523 49.1731 40.7805 49.5553 40.3865C49.9374 39.9925 50.1941 39.4941 50.2929 38.9542C50.3918 38.4144 50.3283 37.8573 50.1105 37.3535C49.8185 36.6781 49.2703 36.1463 48.5863 35.8751C47.9023 35.6038 47.1385 35.6154 46.463 35.9072V35.9072Z" fill="#F6F6F6"/>
<path d="M72.6629 34.8505L71.2045 34.4338C71.1931 34.4306 71.1825 34.4249 71.1736 34.417C71.1647 34.4092 71.1578 34.3994 71.1532 34.3885L70.655 32.9543C70.6504 32.9386 70.6409 32.9248 70.6278 32.915C70.6147 32.9052 70.5988 32.8999 70.5825 32.8999C70.5662 32.8999 70.5503 32.9052 70.5372 32.915C70.5241 32.9248 70.5146 32.9386 70.51 32.9543L70.0964 34.4157C70.0931 34.4275 70.087 34.4384 70.0786 34.4473C70.0702 34.4563 70.0597 34.463 70.0481 34.467L68.6168 34.9652C68.6012 34.9698 68.5874 34.9793 68.5776 34.9924C68.5678 35.0054 68.5625 35.0213 68.5625 35.0377C68.5625 35.054 68.5678 35.0699 68.5776 35.083C68.5874 35.096 68.6012 35.1056 68.6168 35.1101L70.0752 35.5268C70.0867 35.53 70.0972 35.5357 70.1061 35.5436C70.115 35.5514 70.122 35.5612 70.1266 35.5721L70.6248 37.0063C70.6293 37.022 70.6389 37.0358 70.6519 37.0456C70.665 37.0554 70.6809 37.0607 70.6972 37.0607C70.7136 37.0607 70.7295 37.0554 70.7425 37.0456C70.7556 37.0358 70.7651 37.022 70.7697 37.0063L71.1864 35.5449C71.1896 35.5335 71.1953 35.523 71.2031 35.5141C71.211 35.5052 71.2207 35.4982 71.2317 35.4936L72.6629 34.9954C72.6786 34.9908 72.6923 34.9813 72.7021 34.9682C72.7119 34.9552 72.7172 34.9393 72.7172 34.9229C72.7172 34.9066 72.7119 34.8907 72.7021 34.8776C72.6923 34.8646 72.6786 34.855 72.6629 34.8505Z" fill="#F6F6F6"/>
<path d="M39.9986 1.13986e-07C32.087 1.13986e-07 24.3532 2.34605 17.7749 6.74147C11.1967 11.1369 6.06964 17.3843 3.04202 24.6936C0.0144035 32.0029 -0.777761 40.0459 0.765706 47.8054C2.30917 55.565 6.11895 62.6925 11.7133 68.2869C17.3076 73.8812 24.4352 77.6909 32.1947 79.2344C39.9542 80.7779 47.9972 79.9857 55.3065 76.9581C62.6158 73.9305 68.8632 68.8034 73.2586 62.2252C77.654 55.6469 80.0001 47.9131 80.0001 40.0015C80.0005 34.7483 78.9661 29.5465 76.956 24.6931C74.9459 19.8397 71.9994 15.4299 68.2848 11.7153C64.5702 8.00073 60.1604 5.05425 55.307 3.04413C50.4536 1.034 45.2518 -0.000396458 39.9986 1.13986e-07V1.13986e-07ZM39.9412 76.8417C32.6558 76.8297 25.5375 74.6577 19.4865 70.6004C13.4354 66.543 8.72333 60.7824 5.94608 54.0471C3.16883 47.3118 2.45113 39.9042 3.88372 32.761C5.31631 25.6178 8.83486 19.0598 13.9945 13.9163C19.1541 8.77271 25.723 5.2746 32.8706 3.86426C40.0182 2.45392 47.4235 3.19469 54.1502 5.99291C60.8768 8.79112 66.6227 13.5211 70.6612 19.5848C74.6997 25.6484 76.8495 32.7735 76.8388 40.0589C76.8316 44.8969 75.8715 49.6862 74.0133 54.1531C72.1551 58.6201 69.4352 62.6772 66.0088 66.0929C62.5825 69.5086 58.5169 72.2159 54.0442 74.0602C49.5715 75.9044 44.7793 76.8496 39.9412 76.8417V76.8417Z" fill="#F6F6F6"/>
<path d="M68.4626 27.157L66.1799 26.5048C66.1618 26.5003 66.1451 26.4913 66.1314 26.4786C66.1177 26.4659 66.1074 26.45 66.1014 26.4324L65.3193 24.1889C65.3115 24.1655 65.2965 24.1451 65.2765 24.1306C65.2564 24.1162 65.2323 24.1084 65.2076 24.1084C65.1829 24.1084 65.1588 24.1162 65.1388 24.1306C65.1187 24.1451 65.1037 24.1655 65.0959 24.1889L64.4437 26.4746C64.4391 26.4927 64.4301 26.5094 64.4175 26.5231C64.4048 26.5368 64.3889 26.5472 64.3712 26.5531L62.1308 27.3563C62.1062 27.3633 62.0846 27.3782 62.0692 27.3986C62.0537 27.4191 62.0454 27.444 62.0454 27.4695C62.0454 27.4951 62.0537 27.52 62.0692 27.5405C62.0846 27.5609 62.1062 27.5757 62.1308 27.5828L64.4135 28.232C64.4316 28.2375 64.4481 28.2472 64.4618 28.2603C64.4754 28.2735 64.4858 28.2896 64.492 28.3074L65.2741 30.5509C65.2819 30.5743 65.2969 30.5947 65.3169 30.6092C65.337 30.6236 65.3611 30.6314 65.3858 30.6314C65.4105 30.6314 65.4346 30.6236 65.4546 30.6092C65.4747 30.5947 65.4897 30.5743 65.4975 30.5509L66.1497 28.2652C66.1543 28.2471 66.1633 28.2304 66.1759 28.2167C66.1886 28.203 66.2045 28.1927 66.2222 28.1867L68.4656 27.4016C68.498 27.4012 68.529 27.3879 68.5516 27.3647C68.5743 27.3415 68.5868 27.3102 68.5864 27.2778C68.586 27.2454 68.5727 27.2144 68.5495 27.1918C68.5263 27.1691 68.495 27.1566 68.4626 27.157V27.157Z" fill="#F6F6F6"/>
<path d="M40.0167 19.0767C35.8768 19.0767 31.83 20.3043 28.3879 22.6043C24.9458 24.9044 22.263 28.1735 20.6789 31.9982C19.0948 35.823 18.6805 40.0316 19.4883 44.0919C20.2962 48.1521 22.29 51.8816 25.2175 54.8087C28.145 57.7358 31.8748 59.729 35.9351 60.5363C39.9955 61.3436 44.2041 60.9287 48.0286 59.344C51.8532 57.7594 55.1219 55.0761 57.4214 51.6337C59.721 48.1913 60.948 44.1442 60.9474 40.0044C60.9466 34.4537 58.7411 29.1307 54.8159 25.2061C50.8907 21.2814 45.5673 19.0767 40.0167 19.0767V19.0767ZM40.0167 57.8372C37.0203 57.8326 34.0903 56.9539 31.5858 55.3088C29.0814 53.6637 27.1113 51.3237 25.9171 48.5756C24.7228 45.8274 24.3563 42.7906 24.8623 39.8372C25.3684 36.8838 26.7252 34.1423 28.7663 31.9485V31.9485C29.5241 31.1182 28.6666 29.687 28.3224 29.1344C27.9691 28.6453 27.6672 28.0021 27.9148 27.6247C28.2167 27.1718 28.7814 27.1053 29.3611 27.2231C31.058 27.5703 32.3171 28.3826 32.5466 28.1289C32.6915 27.9659 32.3805 27.4888 32.2054 27.2231C31.7948 26.6192 31.7646 25.961 32.1239 25.7134C32.4832 25.4658 33.1595 25.5141 33.537 25.6862C34.0654 25.9247 34.6844 26.1723 35.9525 26.7641C36.3964 26.9695 37.586 27.1627 39.0867 27.0661C39.4037 27.048 39.7238 27.0359 40.0469 27.0359C44.131 27.0359 48.0478 28.6583 50.9357 31.5462C53.8236 34.4341 55.446 38.3509 55.446 42.435C55.446 46.5191 53.8236 50.436 50.9357 53.3239C48.0478 56.2118 44.131 57.8342 40.0469 57.8342L40.0167 57.8372Z" fill="#F6F6F6"/>
<path d="M65.3978 48.3774C65.1617 48.3768 64.9307 48.4464 64.7341 48.5772C64.5375 48.708 64.3842 48.8943 64.2935 49.1123C64.2029 49.3304 64.179 49.5704 64.2249 49.8021C64.2708 50.0337 64.3845 50.2465 64.5515 50.4135C64.7185 50.5805 64.9313 50.6941 65.1629 50.74C65.3945 50.786 65.6346 50.7621 65.8526 50.6714C66.0707 50.5808 66.2569 50.4275 66.3878 50.2309C66.5186 50.0343 66.5881 49.8033 66.5875 49.5671C66.5867 49.2518 66.4611 48.9497 66.2382 48.7268C66.0152 48.5038 65.7131 48.3782 65.3978 48.3774V48.3774Z" fill="#F6F6F6"/>
</g>
</mask>
<g mask="url(#mask0)">
<rect width="80" height="80" fill="url(#paint0_linear)"/>
</g>
<defs>
<linearGradient id="paint0_linear" x1="-9.09495e-10" y1="40" x2="80" y2="40" gradientUnits="userSpaceOnUse">
<stop stop-color="#65CBA0"/>
<stop offset="0.520833" stop-color="#CF88A0"/>
<stop offset="1" stop-color="#A8A5CE"/>
</linearGradient>
<clipPath id="clip0">
<rect width="80" height="80" fill="white"/>
</clipPath>
</defs>
</svg>
