<svg width="365" height="48" viewBox="0 0 365 48" fill="none" xmlns="http://www.w3.org/2000/svg">
<path d="M24.8746 2.88415C22.7487 2.85535 20.632 3.16756 18.605 3.80891C16.8251 4.38625 15.1558 5.26066 13.6677 6.39511C12.2644 7.4849 11.1191 8.87107 10.3135 10.4547C9.51183 12.0325 9.0981 13.7789 9.1066 15.5487C9.07624 16.8851 9.3415 18.2118 9.88341 19.4338C10.4253 20.6558 11.2305 21.743 12.2414 22.6177C13.3414 23.5734 14.5516 24.3943 15.8464 25.0628C17.3744 25.8664 18.944 26.5885 20.5486 27.2258C21.4852 27.6108 22.4008 28.045 23.2915 28.5268L23.9028 28.8559C24.6762 29.2384 25.3978 29.7177 26.0502 30.2822C26.4586 30.6373 26.794 31.0686 27.0376 31.5519C27.2315 32.002 27.3277 32.4881 27.3197 32.9782C27.3388 33.7438 27.1549 34.5009 26.7868 35.1726C26.3966 35.8767 25.8626 36.4909 25.2194 36.9751C24.4162 37.538 23.5269 37.9668 22.5862 38.2446C20.7698 38.6012 18.9192 38.7537 17.069 38.6992H1.84954L0 45.439H19.0752C21.1981 45.4748 23.3135 45.1787 25.3448 44.5613C27.1894 43.9796 28.9148 43.0718 30.4389 41.881C31.8768 40.7533 33.0577 39.3319 33.9028 37.7117C34.7672 36.0759 35.204 34.2481 35.1724 32.3982C35.1926 31.0543 34.9366 29.7206 34.42 28.4797C33.8958 27.3041 33.1509 26.2399 32.2257 25.3449C31.2035 24.3623 30.0479 23.5286 28.7931 22.8685C27.3256 22.0876 25.807 21.4068 24.2476 20.8308C23.1661 20.392 22.3197 19.9845 21.489 19.5769L20.721 19.2008C19.8632 18.8216 19.0531 18.3429 18.3072 17.7744C17.8466 17.4283 17.4624 16.9907 17.1787 16.4892C16.9649 16.0278 16.8577 15.5242 16.8652 15.0158C16.8684 14.3601 17.0297 13.7149 17.3354 13.1349C17.702 12.4647 18.1974 11.8734 18.7931 11.3951C19.5304 10.8275 20.364 10.3974 21.2539 10.1255C22.3779 9.79195 23.5454 9.62818 24.7179 9.63963H40.6269L42.4765 2.91548L24.8746 2.88415Z" fill="white"/>
<path d="M70.8002 3.82447C68.5147 3.15892 66.1429 2.83667 63.7626 2.86834H50.1733L50.0008 3.52666L38.6372 45.4075H46.2861L50.0949 31.3793H58.3864C61.2088 31.4049 64.0225 31.0624 66.7563 30.3605C69.1574 29.7393 71.4217 28.6762 73.4334 27.2257C75.2882 25.9044 76.8118 24.1716 77.8848 22.163C78.9604 20.0427 79.4987 17.6906 79.4522 15.3135C79.5074 13.7638 79.2453 12.2192 78.682 10.7745C78.1187 9.32984 77.266 8.01551 76.1764 6.91225C74.6601 5.46377 72.8154 4.40429 70.8002 3.82447ZM68.7626 22.1003C66.4899 23.6677 63.0886 24.5141 58.6686 24.5141H51.9444L55.9099 9.92163H63.6529C66.7877 9.92163 69.1544 10.6113 70.5337 11.9906C71.0105 12.4732 71.381 13.0502 71.6212 13.6846C71.8615 14.319 71.9662 14.9967 71.9288 15.674C72.01 16.9286 71.7602 18.1825 71.2046 19.3103C70.649 20.4381 69.8069 21.4002 68.7626 22.1003V22.1003Z" fill="white"/>
<path d="M153.684 32.8995C152.367 34.6933 150.65 36.1556 148.669 37.1704C146.688 38.1852 144.499 38.7246 142.273 38.7459C140.696 38.8428 139.115 38.6146 137.629 38.0754C136.144 37.5361 134.785 36.6973 133.637 35.6111C132.666 34.4797 131.936 33.1624 131.491 31.7395C131.047 30.3166 130.897 28.818 131.051 27.3352C131.583 17.1158 138.449 9.71768 147.383 9.71768C149.605 9.65366 151.797 10.2337 153.697 11.3879C155.596 12.542 157.121 14.221 158.088 16.2224L158.496 17.1315L164.185 13.6832L164.859 13.2757L164.53 12.5704C161.85 6.55155 155.737 2.93086 148.182 2.86816H147.994C134.562 2.86816 124.279 13.1346 123.543 27.2725C123.327 29.6138 123.601 31.9744 124.349 34.2036C125.096 36.4327 126.301 38.4816 127.884 40.2192C129.709 42.0185 131.886 43.4207 134.278 44.3379C136.671 45.255 139.228 45.6671 141.787 45.5484C144.673 45.5477 147.53 44.9675 150.187 43.842C152.845 42.7166 155.249 41.0689 157.257 38.9967L153.684 32.8995Z" fill="white"/>
<path d="M196.223 32.8997C194.884 34.7204 193.134 36.1999 191.116 37.2184C189.098 38.2368 186.869 38.7656 184.609 38.7618V38.7618C183.065 38.8263 181.524 38.5823 180.076 38.044C178.628 37.5058 177.302 36.684 176.176 35.627C175.218 34.5038 174.497 33.1989 174.055 31.7903C173.613 30.3818 173.46 28.8985 173.605 27.4295L203.747 27.3198L203.966 26.7712C204.673 24.9466 205.198 23.0565 205.533 21.1285C206.042 18.8508 206.036 16.4881 205.516 14.213C204.995 11.9379 203.973 9.8077 202.524 7.97808C201.067 6.34577 199.271 5.0502 197.263 4.18137C195.255 3.31253 193.081 2.89126 190.894 2.94674C184.428 3.04211 178.246 5.61265 173.618 10.1292C168.991 14.6457 166.271 20.7645 166.019 27.2257C165.804 29.5184 166.059 31.8308 166.768 34.0218C167.477 36.2127 168.625 38.2362 170.141 39.9687C173.276 43.4326 178.386 45.3605 184.248 45.5486C190.078 45.476 195.652 43.1441 199.797 39.0439L196.223 32.8997ZM198.073 21.1442H174.812C175.773 18.0323 177.65 15.2822 180.197 13.2524C182.744 11.2226 185.843 10.0073 189.091 9.76489H190.173C191.422 9.69276 192.672 9.90656 193.826 10.39C194.98 10.8735 196.009 11.6139 196.834 12.5549C198.417 14.4671 198.841 17.4608 198.073 21.1442Z" fill="white"/>
<path d="M115.11 6.30105C112.305 4.02832 108.371 2.93115 103.104 2.93115H96.5055H89.5776H88.4647L92.5243 9.87472H102.179C104.813 9.66971 107.442 10.3242 109.672 11.7399C110.446 12.3786 111.059 13.1915 111.459 14.1123C111.86 15.0331 112.037 16.0355 111.976 17.0377C111.974 17.6055 111.921 18.172 111.819 18.7305C111.725 19.3731 111.6 19.9531 111.474 20.4547C109.74 19.9844 107.843 19.5612 105.784 19.1851C103.248 18.7459 100.678 18.5256 98.1042 18.5267C95.6417 18.5029 93.1897 18.8517 90.8315 19.5612C88.7242 20.1865 86.7484 21.1904 85.0008 22.5236C83.344 23.8007 82.0033 25.4417 81.0823 27.3199C80.1608 29.2808 79.6896 31.4229 79.703 33.5895C79.665 35.2678 80.0159 36.9321 80.7284 38.4521C81.4408 39.9721 82.4954 41.3067 83.8096 42.3512C85.0755 43.3444 86.5087 44.1034 88.0415 44.5926C89.6694 45.105 91.3663 45.3641 93.0729 45.3606C95.6083 45.388 98.1236 44.9084 100.471 43.95C102.711 42.8501 104.865 41.5822 106.913 40.1569L109.484 44.5142H112.477L118.668 21.6459C118.86 20.9084 119.007 20.1599 119.107 19.4045C119.107 19.1694 119.186 18.9499 119.217 18.7305C119.371 17.8032 119.45 16.8649 119.452 15.9249C119.52 14.0945 119.164 12.2731 118.411 10.6035C117.657 8.93381 116.528 7.46122 115.11 6.30105V6.30105ZM109.295 28.6052C109.201 28.9343 107.085 36.4421 96.6465 38.6678C95.7368 38.8372 94.8133 38.9212 93.8879 38.9186C92.7686 38.9222 91.6529 38.7907 90.5651 38.5268C89.4178 38.194 88.4183 37.48 87.7315 36.5026C87.0448 35.5251 86.7118 34.3428 86.7876 33.1506C86.8057 31.9463 87.1121 30.7639 87.681 29.7023C88.3829 28.634 89.2755 27.7042 90.3143 26.9594C91.3438 26.1911 92.5081 25.6223 93.7469 25.2823C95.226 24.8386 96.7639 24.6219 98.308 24.6396C100.585 24.6286 102.859 24.7911 105.111 25.1255C106.735 25.3676 108.346 25.692 109.938 26.0973L109.295 28.6052Z" fill="white"/>
<path d="M339.295 10.9091L337.211 18.605H359.64L357.023 28.2445H334.593L332.336 36.5988H357.602L354.907 46.5674H316.976L329.342 0.94043H364.421L361.725 10.9091H339.295Z" fill="white"/>
<path d="M321.473 0.940982L309.122 46.5679H298.636L283.919 21.4895L277.132 46.5679H264.483L276.85 0.925293H287.445L302.085 25.8312L308.825 0.925293L321.473 0.940982Z" fill="white"/>
<path d="M213.778 27.4608C214.891 11.5831 227.461 0 244.264 0C258.37 0 266.443 8.30722 265.612 20.1411C264.499 36.0345 251.928 47.6019 235.126 47.6019C221.066 47.6019 212.947 39.2947 213.778 27.4608ZM252.352 20.9248C252.775 14.8433 249.217 10.721 242.383 10.721C233.527 10.721 227.649 18.0564 227.038 26.6771C226.615 32.7586 230.173 36.8809 237.007 36.8809C245.863 36.8809 251.756 29.5612 252.352 20.9248Z" fill="white"/>
</svg>
