<svg viewBox="0 0 52 52" fill="none" xmlns="http://www.w3.org/2000/svg"><path d="M48.73 12.36c-1.3 0-1.96.83-2.18 1.63h-.42V6.52c0-.36-.3-.65-.65-.65h-7.47v-.42c.8-.22 1.63-.88 1.63-2.18C39.64 1.6 38.28 1 37.36 1h-3.24c-.92 0-2.28.6-2.28 2.27 0 1.3.83 1.96 1.63 2.18v.42H18.53v-.42c.8-.22 1.63-.88 1.63-2.18C20.16 1.6 18.8 1 17.88 1h-3.24c-.92 0-2.28.6-2.28 2.27 0 1.3.83 1.96 1.63 2.18v.42H6.52a.65.65 0 00-.65.65v7.47h-.42a2.15 2.15 0 00-2.18-1.63C1.61 12.36 1 13.72 1 14.64v3.24c0 .92.6 2.28 2.27 2.28 1.3 0 1.96-.83 2.18-1.63h.42v14.94h-.42a2.15 2.15 0 00-2.18-1.63C1.61 31.84 1 33.2 1 34.12v3.24c0 .92.6 2.28 2.27 2.28 1.3 0 1.96-.83 2.18-1.63h.42v7.47c0 .36.3.65.65.65h7.47v.42c-.8.22-1.63.88-1.63 2.18 0 1.67 1.36 2.27 2.28 2.27h3.24c.92 0 2.28-.6 2.28-2.27 0-1.3-.83-1.96-1.63-2.18v-.42h14.94v.42c-.8.22-1.63.88-1.63 2.18 0 1.67 1.36 2.27 2.28 2.27h3.24c.92 0 2.28-.6 2.28-2.27 0-1.3-.83-1.96-1.63-2.18v-.42h7.47c.36 0 .65-.3.65-.65v-7.47h.42c.22.8.88 1.63 2.18 1.63 1.66 0 2.27-1.36 2.27-2.28v-3.24c0-.92-.6-2.28-2.27-2.28-1.3 0-1.96.83-2.18 1.63h-.42V18.53h.42c.22.8.88 1.63 2.18 1.63 1.66 0 2.27-1.36 2.27-2.28v-3.24c0-.92-.6-2.28-2.27-2.28zM5.87 36.71H4.9a.65.65 0 00-.65.65c0 .17-.05.98-.98.98-.86 0-.97-.69-.97-.98v-3.24c0-.17.05-.98.97-.98.86 0 .97.69.98.98 0 .36.29.65.65.65h.97v1.94zM33.14 3.27c0-.86.69-.97.98-.97h3.24c.17 0 .98.05.98.97 0 .86-.69.97-.98.98a.65.65 0 00-.65.65v.97h-1.94V4.9c0-.36-.3-.65-.65-.65-.17 0-.98-.05-.98-.98zM6.52 17.23H4.9a.65.65 0 00-.65.65c0 .17-.05.98-.98.98-.86 0-.97-.69-.97-.98v-3.24c0-.17.05-.98.97-.98.86 0 .97.69.98.98 0 .36.29.65.65.65h1.62c.36 0 .65-.3.65-.65V7.17h7.47c.35 0 .65-.3.65-.65V4.9c0-.36-.3-.65-.65-.65-.17 0-.98-.05-.98-.98 0-.86.69-.97.98-.97h3.24c.17 0 .98.05.98.97 0 .86-.69.97-.98.98a.65.65 0 00-.65.65v1.62c0 .36.3.65.65.65h7.47v7.47c0 .36.3.65.65.65h1.62c.36 0 .65-.3.65-.65 0-.17.05-.98.98-.98.86 0 .97.69.97.98v3.24c0 .17-.05.98-.97.98-.87 0-.97-.69-.98-.98 0-.36-.29-.65-.65-.65H26a.65.65 0 00-.65.65v7.47h-6.82v-.42c.8-.22 1.63-.88 1.63-2.18 0-1.66-1.36-2.27-2.28-2.27h-3.24c-.92 0-2.28.6-2.28 2.27 0 1.3.83 1.96 1.63 2.18v.42H7.17v-7.47c0-.36-.3-.65-.65-.65zm18.83 27.6h-7.47a.65.65 0 00-.65.65v1.62c0 .36.3.65.65.65.17 0 .98.05.98.98 0 .86-.69.97-.98.97h-3.24c-.17 0-.98-.05-.98-.97 0-.86.69-.97.98-.98.35 0 .65-.29.65-.65v-1.62c0-.36-.3-.65-.65-.65H7.17V26.65h7.47c.35 0 .65-.3.65-.65v-1.62c0-.36-.3-.65-.65-.65-.17 0-.98-.05-.98-.98 0-.86.69-.97.98-.97h3.24c.17 0 .98.05.98.97 0 .86-.69.97-.98.98a.65.65 0 00-.65.65V26c0 .36.3.65.65.65h7.47v6.82h-.42a2.15 2.15 0 00-2.18-1.63c-1.66 0-2.27 1.36-2.27 2.28v3.24c0 .92.6 2.28 2.27 2.28 1.3 0 1.96-.83 2.18-1.63h.42v6.82zm19.48-10.71v10.71h-7.47a.65.65 0 00-.65.65v1.62c0 .36.3.65.65.65.17 0 .98.05.98.98 0 .86-.68.97-.98.97h-3.24c-.17 0-.98-.05-.98-.97 0-.86.69-.97.98-.98.36 0 .65-.29.65-.65v-1.62c0-.36-.3-.65-.65-.65h-7.47v-7.47c0-.36-.3-.65-.65-.65h-1.62a.65.65 0 00-.65.65c0 .17-.05.98-.98.98-.86 0-.97-.69-.97-.98v-3.24c0-.17.05-.98.97-.98.87 0 .97.69.98.98 0 .36.29.65.65.65H26c.36 0 .65-.3.65-.65v-7.47h6.82v.42c-.8.22-1.63.88-1.63 2.18 0 1.66 1.36 2.27 2.28 2.27h3.24c.92 0 2.28-.6 2.28-2.27 0-1.3-.83-1.96-1.63-2.18v-.42h6.82v7.47zm0-19.48v10.71h-7.47c-.35 0-.65.3-.65.65v1.62c0 .36.3.65.65.65.17 0 .98.05.98.98 0 .1-.01.2-.03.29l-.06.16-.02.06c-.2.4-.65.46-.87.46h-3.24c-.17 0-.98-.05-.98-.97 0-.86.69-.97.98-.98.36 0 .65-.29.65-.65V26c0-.36-.3-.65-.65-.65h-7.47v-6.82h.42c.22.8.88 1.63 2.18 1.63 1.66 0 2.27-1.36 2.27-2.28v-3.24c0-.92-.6-2.28-2.27-2.28-1.3 0-1.96.83-2.18 1.63h-.42V7.17h18.18v7.47zm2.27 20.13c.36 0 .65-.3.65-.65 0-.17.05-.98.98-.98.86 0 .97.69.97.98v3.24c0 .17-.05.98-.97.98-.86 0-.97-.69-.98-.98 0-.36-.29-.65-.65-.65h-.97v-1.94h.97zm2.6-16.89c0 .17-.05.98-.97.98-.86 0-.97-.69-.98-.98 0-.36-.29-.65-.65-.65h-.97V15.3h.97c.36 0 .65-.3.65-.65 0-.17.05-.98.98-.98.86 0 .97.69.97.98v3.24z" fill="#A8A5CE" stroke="#A8A5CE"/></svg>