<svg width="34" height="34" viewBox="0 0 34 34" fill="none" xmlns="http://www.w3.org/2000/svg">
<mask id="mask0" mask-type="alpha" maskUnits="userSpaceOnUse" x="0" y="0" width="34" height="34">
<path d="M17.0333 3.26026e-05C13.6707 -0.00655135 10.3818 0.984204 7.58232 2.847C4.78289 4.7098 2.59876 7.36097 1.30619 10.4652C0.0136133 13.5694 -0.329351 16.9872 0.320675 20.2863C0.9707 23.5854 2.58452 26.6177 4.95801 28.9996C7.33151 31.3815 10.3581 33.006 13.6549 33.6676C16.9517 34.3293 20.3707 33.9984 23.4794 32.7168C26.5882 31.4351 29.247 29.2604 31.1197 26.4676C32.9923 23.6747 33.9947 20.3892 34 17.0267C34.0071 12.5191 32.2237 8.19333 29.042 5.0004C25.8603 1.80748 21.5408 0.00885843 17.0333 3.26026e-05V3.26026e-05ZM22.8887 5.48241C23.0099 5.48241 23.1284 5.51834 23.2292 5.58568C23.33 5.65302 23.4085 5.74875 23.4549 5.86073C23.5013 5.97271 23.5134 6.09594 23.4898 6.21482C23.4661 6.3337 23.4078 6.44289 23.322 6.5286C23.2363 6.61431 23.1271 6.67269 23.0083 6.69634C22.8894 6.71998 22.7662 6.70784 22.6542 6.66145C22.5422 6.61507 22.4465 6.53652 22.3791 6.43574C22.3118 6.33496 22.2758 6.21646 22.2758 6.09525C22.2722 6.01255 22.2854 5.93 22.3146 5.85254C22.3438 5.77508 22.3884 5.70433 22.4456 5.64457C22.5029 5.58481 22.5717 5.53726 22.6478 5.50481C22.724 5.47236 22.8059 5.45568 22.8887 5.45575V5.48241ZM21.2034 2.87111C21.3129 2.87111 21.4179 2.91464 21.4954 2.99209C21.5728 3.06954 21.6164 3.17458 21.6164 3.28412C21.6164 3.39365 21.5728 3.49871 21.4954 3.57617C21.4179 3.65362 21.3129 3.69712 21.2034 3.69712C21.0938 3.69712 20.9888 3.65362 20.9113 3.57617C20.8339 3.49871 20.7903 3.39365 20.7903 3.28412C20.7867 3.22768 20.7947 3.17109 20.8138 3.11787C20.8329 3.06464 20.8628 3.01591 20.9015 2.97469C20.9402 2.93347 20.987 2.90065 21.0389 2.87825C21.0908 2.85585 21.1468 2.84434 21.2034 2.84446V2.87111ZM15.2081 3.14423C15.3648 3.14423 15.5181 3.19073 15.6485 3.27784C15.7788 3.36494 15.8804 3.48875 15.9404 3.6336C16.0004 3.77844 16.0161 3.93782 15.9855 4.09159C15.9549 4.24536 15.8794 4.38662 15.7686 4.49748C15.6577 4.60834 15.5165 4.68385 15.3627 4.71443C15.2089 4.74502 15.0495 4.72932 14.9047 4.66932C14.7598 4.60932 14.636 4.50772 14.5489 4.37736C14.4618 4.247 14.4153 4.09373 14.4153 3.93695C14.408 3.73106 14.481 3.53039 14.619 3.37745C14.7571 3.22451 14.9492 3.1313 15.1548 3.11758L15.2081 3.14423ZM5.1626 16.547L4.32326 16.8402C4.3197 16.851 4.3197 16.8626 4.32326 16.8735L4.08345 17.7328C4.07999 17.7414 4.07401 17.7489 4.0663 17.7541C4.05858 17.7593 4.04947 17.7621 4.04015 17.7621C4.03083 17.7621 4.02172 17.7593 4.01401 17.7541C4.00629 17.7489 4.00031 17.7414 3.99685 17.7328L3.70375 16.8868L2.84442 16.6403C2.80445 16.6403 2.80445 16.5737 2.84442 16.5604L3.68376 16.2606C3.69449 16.2647 3.70635 16.2647 3.71707 16.2606L3.83032 15.3213C3.83378 15.3127 3.83975 15.3053 3.84747 15.3C3.85519 15.2948 3.8643 15.292 3.87362 15.292C3.88294 15.292 3.89204 15.2948 3.89976 15.3C3.90748 15.3053 3.91345 15.3127 3.91691 15.3213L4.21002 16.1673L5.06934 16.4138C5.08701 16.4015 5.10887 16.3966 5.1301 16.4004C5.15134 16.4041 5.17022 16.4161 5.18259 16.4338C5.19495 16.4515 5.1998 16.4733 5.19605 16.4946C5.1923 16.5158 5.18027 16.5347 5.1626 16.547V16.547ZM5.6822 7.93381C5.6822 7.8126 5.71814 7.6941 5.78548 7.59332C5.85282 7.49254 5.94854 7.41399 6.06052 7.3676C6.1725 7.32122 6.29573 7.30909 6.41461 7.33274C6.53349 7.35639 6.64269 7.41475 6.7284 7.50046C6.81411 7.58616 6.87248 7.69537 6.89613 7.81426C6.91978 7.93314 6.90764 8.05634 6.86125 8.16833C6.81487 8.28031 6.73632 8.37604 6.63553 8.44338C6.53475 8.51072 6.41626 8.54665 6.29505 8.54665C6.21181 8.55118 6.12852 8.5387 6.05028 8.50994C5.97204 8.48117 5.90049 8.43675 5.84 8.37938C5.77952 8.32202 5.73137 8.25291 5.69851 8.1763C5.66565 8.09968 5.64877 8.01717 5.64889 7.93381H5.6822ZM6.75469 11.4044C6.64162 11.4044 6.53318 11.3595 6.45323 11.2796C6.37328 11.1996 6.32836 11.0912 6.32836 10.9781C6.32836 10.865 6.37328 10.7566 6.45323 10.6766C6.53318 10.5967 6.64162 10.5518 6.75469 10.5518C6.86776 10.5518 6.9762 10.5967 7.05615 10.6766C7.1361 10.7566 7.18102 10.865 7.18102 10.9781C7.1812 11.037 7.16918 11.0953 7.1457 11.1493C7.12222 11.2033 7.0878 11.2519 7.04462 11.292C7.00143 11.332 6.95041 11.3627 6.89478 11.3821C6.83914 11.4014 6.7801 11.409 6.72138 11.4044H6.75469ZM17.0133 32.5945C13.6709 32.5926 10.4176 31.516 7.73392 29.5235C8.53946 28.4457 9.53777 27.5264 10.6783 26.8123C10.7329 26.8598 10.7933 26.9001 10.8581 26.9322C12.7268 27.9978 14.8357 28.5709 16.9867 28.5976C19.1659 28.5771 21.3043 28.0041 23.2018 26.9322C23.259 26.903 23.3127 26.8672 23.3617 26.8256C24.5043 27.5422 25.5048 28.4636 26.3127 29.5435C23.6143 31.5445 20.3392 32.6151 16.98 32.5945H17.0133ZM17.0533 26.5992C15.1442 26.5992 13.278 26.0331 11.6907 24.9724C10.1033 23.9118 8.86616 22.4043 8.13559 20.6406C7.40502 18.8768 7.21388 16.936 7.58632 15.0636C7.95876 13.1912 8.87806 11.4714 10.228 10.1214C11.5779 8.77153 13.2978 7.85222 15.1702 7.47978C17.0426 7.10734 18.9833 7.29848 20.7471 8.02905C22.5108 8.75962 24.0184 9.99681 25.079 11.5841C26.1396 13.1715 26.7057 15.0377 26.7057 16.9467C26.711 18.2208 26.4641 19.4833 25.9794 20.6616C25.4947 21.8398 24.7817 22.9105 23.8814 23.8121C22.9811 24.7136 21.9114 25.4281 20.7338 25.9144C19.5562 26.4008 18.294 26.6493 17.02 26.6458L17.0533 26.5992ZM28.7641 21.9362C28.6545 21.9375 28.5469 21.9062 28.4551 21.8462C28.3633 21.7863 28.2914 21.7004 28.2486 21.5995C28.2057 21.4986 28.1938 21.3872 28.2143 21.2795C28.2349 21.1719 28.287 21.0727 28.3641 20.9947C28.4412 20.9167 28.5397 20.8634 28.6471 20.8415C28.7545 20.8196 28.866 20.8302 28.9674 20.8718C29.0689 20.9135 29.1556 20.9843 29.2167 21.0754C29.2777 21.1665 29.3103 21.2736 29.3103 21.3833C29.3104 21.4582 29.2953 21.5323 29.2658 21.6012C29.2364 21.6701 29.1933 21.7322 29.1391 21.7839C29.0849 21.8357 29.0207 21.8758 28.9506 21.902C28.8804 21.9281 28.8056 21.9398 28.7308 21.9362H28.7641ZM30.1763 11.1513L29.1438 11.511C29.1438 11.511 29.1438 11.511 29.1438 11.5443L28.844 12.6035C28.839 12.6133 28.8313 12.6215 28.8219 12.6272C28.8125 12.6329 28.8017 12.636 28.7907 12.636C28.7797 12.636 28.7689 12.6329 28.7595 12.6272C28.7501 12.6215 28.7425 12.6133 28.7374 12.6035L28.3777 11.571C28.3761 11.5615 28.3712 11.553 28.3639 11.5469C28.3566 11.5408 28.3473 11.5375 28.3378 11.5377L27.2852 11.2379C27.2755 11.2328 27.2673 11.2252 27.2615 11.2158C27.2558 11.2064 27.2528 11.1956 27.2528 11.1846C27.2528 11.1736 27.2558 11.1628 27.2615 11.1534C27.2673 11.144 27.2755 11.1363 27.2852 11.1313L28.3178 10.7716C28.3178 10.7716 28.3178 10.7716 28.3178 10.7316L28.6175 9.6791C28.6175 9.66497 28.6231 9.65141 28.6331 9.64141C28.6431 9.63142 28.6567 9.62582 28.6708 9.62582C28.685 9.62582 28.6985 9.63142 28.7085 9.64141C28.7185 9.65141 28.7241 9.66497 28.7241 9.6791L29.0838 10.7116C29.0815 10.7226 29.0815 10.734 29.0838 10.7449L30.1363 11.0447C30.1465 11.0491 30.1552 11.0562 30.1615 11.0653C30.1679 11.0743 30.1716 11.0849 30.1723 11.096C30.173 11.107 30.1706 11.118 30.1654 11.1277C30.1603 11.1375 30.1525 11.1457 30.143 11.1513H30.1763ZM32.1148 14.6619L31.4486 14.895L31.2555 15.5611C31.2555 15.57 31.252 15.5785 31.2457 15.5847C31.2395 15.591 31.231 15.5945 31.2222 15.5945C31.2133 15.5945 31.2049 15.591 31.1986 15.5847C31.1924 15.5785 31.1888 15.57 31.1888 15.5611L30.9624 14.895L30.2962 14.7018C30.2874 14.7018 30.2789 14.6983 30.2727 14.6921C30.2664 14.6858 30.2629 14.6774 30.2629 14.6685C30.2629 14.6597 30.2664 14.6512 30.2727 14.645C30.2789 14.6387 30.2874 14.6352 30.2962 14.6352L30.9624 14.4087L31.1555 13.7426C31.1555 13.7338 31.1591 13.7253 31.1653 13.719C31.1715 13.7128 31.18 13.7093 31.1888 13.7093C31.1977 13.7093 31.2062 13.7128 31.2124 13.719C31.2186 13.7253 31.2222 13.7338 31.2222 13.7426L31.4553 14.4087L32.1215 14.6019C32.125 14.6045 32.1279 14.6078 32.1301 14.6116C32.1324 14.6154 32.1338 14.6195 32.1344 14.6239C32.1351 14.6282 32.1348 14.6326 32.1337 14.6368C32.1326 14.6411 32.1307 14.645 32.1281 14.6485C32.1255 14.652 32.1222 14.655 32.1184 14.6572C32.1147 14.6594 32.1105 14.6609 32.1062 14.6615C32.1018 14.6621 32.0974 14.6619 32.0932 14.6608C32.089 14.6597 32.085 14.6578 32.0815 14.6552L32.1148 14.6619Z" fill="#6638B6"/>
<path d="M17.02 10.998H16.5737C16.0873 11.0472 15.5961 10.9997 15.1282 10.8581C14.5486 10.585 14.2622 10.4651 14.0157 10.3585C13.9123 10.3069 13.7982 10.28 13.6826 10.28C13.567 10.28 13.453 10.3069 13.3496 10.3585C13.183 10.4717 13.1964 10.7782 13.3895 11.058C13.4695 11.1712 13.6094 11.391 13.5427 11.471C13.4761 11.5509 12.8766 11.2178 12.0772 11.058C11.9612 11.0157 11.8349 11.0103 11.7157 11.0425C11.5965 11.0746 11.4901 11.1429 11.4111 11.2378C11.2912 11.411 11.4111 11.7108 11.5976 11.904C11.7841 12.0971 12.1505 12.8232 11.8041 13.2029C10.691 14.3966 10.0231 15.9373 9.91274 17.5657C9.80239 19.1941 10.2563 20.8108 11.1982 22.1437C12.1401 23.4766 13.5124 24.4444 15.0842 24.8842C16.6559 25.324 18.3312 25.2089 19.8281 24.5584C21.3249 23.9078 22.552 22.7615 23.3028 21.3123C24.0536 19.8631 24.2822 18.1995 23.9503 16.6015C23.6183 15.0035 22.746 13.5686 21.4801 12.5383C20.2143 11.508 18.6322 10.9453 17 10.9447L17.02 10.998ZM13.7559 18.6853C13.7378 18.8717 13.6648 19.0485 13.5461 19.1933C13.4274 19.3382 13.2684 19.4446 13.0893 19.499C12.9101 19.5534 12.7188 19.5534 12.5396 19.499C12.3604 19.4446 12.2014 19.3382 12.0827 19.1934C11.964 19.0485 11.891 18.8717 11.8729 18.6853C11.8548 18.4989 11.8924 18.3114 11.981 18.1464C12.0696 17.9814 12.2052 17.8464 12.3705 17.7586C12.5359 17.6707 12.7236 17.6339 12.9099 17.6528C13.1588 17.678 13.3876 17.8009 13.5461 17.9944C13.7047 18.1879 13.7801 18.4363 13.7559 18.6853V18.6853ZM21.0036 17.433C20.7715 17.533 20.5149 17.5621 20.2663 17.5165C20.0177 17.4708 19.7882 17.3526 19.6068 17.1766C19.4253 17.0007 19.3001 16.7749 19.2468 16.5278C19.1936 16.2807 19.2148 16.0234 19.3077 15.7883C19.4006 15.5533 19.5611 15.351 19.7689 15.2071C19.9766 15.0632 20.2224 14.984 20.4751 14.9797C20.7278 14.9753 20.9762 15.0459 21.1888 15.1826C21.4014 15.3193 21.5687 15.5159 21.6697 15.7476C21.737 15.902 21.7731 16.0681 21.776 16.2364C21.7789 16.4048 21.7485 16.572 21.6866 16.7286C21.6247 16.8852 21.5325 17.028 21.4153 17.1489C21.2981 17.2697 21.1582 17.3663 21.0036 17.433V17.433Z" fill="#6638B6"/>
</mask>
<g mask="url(#mask0)">
<rect width="34.0319" height="34" fill="#001B33"/>
</g>
</svg>
