<svg width="154" height="28" viewBox="0 0 154 28" fill="none" xmlns="http://www.w3.org/2000/svg">
<path d="M14.0199 4.74348e-05C6.29307 -0.0198672 0.0199621 6.23331 4.74349e-05 13.9801C-0.0198672 21.7069 6.23332 27.98 13.9801 28C21.707 28.0199 27.9801 21.7667 28 14.0199C28 6.29306 21.7468 0.019962 14.0199 4.74348e-05ZM18.8393 4.52066C19.1181 4.52066 19.3371 4.73972 19.3371 5.01852C19.3371 5.29733 19.1181 5.51639 18.8393 5.51639C18.5605 5.51639 18.3414 5.29733 18.3414 5.01852C18.3215 4.73972 18.5605 4.52066 18.8393 4.52066ZM17.4453 2.36988C17.6245 2.36988 17.7838 2.5292 17.7838 2.70843C17.7838 2.88766 17.6245 3.04698 17.4453 3.04698C17.266 3.04698 17.1067 2.88766 17.1067 2.70843C17.1067 2.50929 17.266 2.36988 17.4453 2.36988ZM12.4865 2.58894C12.845 2.58894 13.1437 2.88766 13.1437 3.24612C13.1437 3.60459 12.845 3.90331 12.4865 3.90331C12.128 3.90331 11.8293 3.60459 11.8293 3.24612C11.8293 2.88766 12.128 2.58894 12.4865 2.58894ZM4.22195 13.6415L3.52493 13.8805C3.50502 13.8805 3.50502 13.9004 3.50502 13.9004L3.30587 14.6174C3.30587 14.6572 3.24613 14.6572 3.24613 14.6174L2.98724 13.9203C2.98724 13.9004 2.96733 13.9004 2.96733 13.9004L2.2504 13.7013C2.21057 13.7013 2.21057 13.6415 2.2504 13.6415L2.94741 13.4026C2.96733 13.4026 2.96733 13.3826 2.96733 13.3826L3.16647 12.6657C3.16647 12.6259 3.22622 12.6259 3.22622 12.6657L3.46519 13.3627C3.46519 13.3826 3.48511 13.3826 3.48511 13.3826L4.20203 13.5818C4.24186 13.5818 4.24186 13.6216 4.22195 13.6415ZM4.64015 6.55195C4.64015 6.27314 4.85921 6.05408 5.13802 6.05408C5.41682 6.05408 5.63588 6.27314 5.63588 6.55195C5.63588 6.83075 5.41682 7.04981 5.13802 7.04981C4.85921 7.04981 4.64015 6.83075 4.64015 6.55195ZM5.5164 9.41965C5.31725 9.41965 5.15793 9.26033 5.15793 9.06118C5.15793 8.86204 5.31725 8.70272 5.5164 8.70272C5.71554 8.70272 5.87486 8.86204 5.87486 9.06118C5.87486 9.26033 5.71554 9.41965 5.5164 9.41965ZM13.9602 26.8648C11.0726 26.8449 8.44384 25.9089 6.31298 24.3357C6.99008 23.4395 7.78666 22.7226 8.74256 22.1052C8.78239 22.1451 8.84214 22.165 8.88197 22.2048C10.3756 23.0213 12.0882 23.5789 13.9204 23.5789C15.7724 23.5789 17.5249 23.0412 19.0384 22.2048C19.0782 22.1849 19.138 22.1451 19.1778 22.1052C20.1337 22.7226 20.9303 23.4395 21.6074 24.3357C19.4765 25.9089 16.8478 26.8648 13.9602 26.8648ZM14 21.9459C9.61881 21.9459 6.05409 18.3812 6.05409 14C6.05409 9.61879 9.61881 6.05408 14 6.05408C18.3812 6.05408 21.946 9.61879 21.946 14C21.946 18.3812 18.3812 21.9459 14 21.9459ZM23.6387 18.0825C23.3798 18.0825 23.1807 17.8833 23.1807 17.6245C23.1807 17.3656 23.3798 17.1664 23.6387 17.1664C23.8976 17.1664 24.0967 17.3656 24.0967 17.6245C24.0967 17.8833 23.8976 18.0825 23.6387 18.0825ZM24.8137 9.20059L23.9573 9.4993C23.9374 9.4993 23.9374 9.51922 23.9374 9.53913L23.6984 10.4154C23.6785 10.4552 23.6188 10.4552 23.6188 10.4154L23.3201 9.55905C23.3201 9.53913 23.3001 9.53913 23.2802 9.53913L22.404 9.30016C22.3642 9.28024 22.3642 9.2205 22.404 9.2205L23.2603 8.92178C23.2802 8.92178 23.2802 8.90187 23.2802 8.88195L23.5192 8.00571C23.5391 7.96588 23.5989 7.96588 23.5989 8.00571L23.8976 8.86204C23.8976 8.88195 23.9175 8.88195 23.9374 8.88195L24.8137 9.12093C24.8535 9.12093 24.8535 9.18067 24.8137 9.20059ZM26.4068 12.0882L25.8691 12.2873L25.8492 12.3073L25.6899 12.8649C25.6899 12.8848 25.6501 12.8848 25.6302 12.8649L25.431 12.3272L25.4111 12.3073L24.8535 12.1479C24.8336 12.1479 24.8336 12.1081 24.8535 12.0882L25.3912 11.8891L25.4111 11.8691L25.5704 11.3115C25.5704 11.2916 25.6102 11.2916 25.6302 11.3115L25.8293 11.8492L25.8492 11.8691L26.4068 12.0285C26.4267 12.0484 26.4267 12.0882 26.4068 12.0882Z" fill="#3C2C84"/>
<path d="M14 9.08124C13.8805 9.08124 13.761 9.08124 13.6416 9.10115C13.064 9.14098 12.6259 9.06132 12.4467 8.98166C11.9687 8.7626 11.7298 8.66303 11.5306 8.56346C11.3912 8.50371 11.1323 8.4838 10.9929 8.58337C10.8535 8.68295 10.8734 8.92192 11.0327 9.1609C11.0925 9.26047 11.212 9.4397 11.1721 9.49944C11.0925 9.59902 10.6145 9.28038 9.95736 9.1609C9.73829 9.12107 9.51923 9.14098 9.39975 9.32021C9.30017 9.45961 9.41966 9.69859 9.55906 9.89774C9.69847 10.1168 10.0171 10.6545 9.73829 10.9731C8.76248 12.0087 8.16504 13.4226 8.16504 14.956C8.16504 18.1822 10.7739 20.8109 14.0199 20.8109C17.2461 20.8109 19.8748 18.2021 19.8748 14.956C19.8549 11.69 17.2262 9.08124 14 9.08124ZM11.3115 15.4141C11.2717 15.8323 10.8933 16.1509 10.4552 16.1111C10.037 16.0713 9.71838 15.6929 9.75821 15.2548C9.79804 14.8366 10.1764 14.5179 10.6145 14.5577C11.0527 14.5976 11.3514 14.976 11.3115 15.4141ZM17.2859 14.3785C16.7482 14.6175 16.1309 14.3586 15.8919 13.8209C15.6529 13.2832 15.9118 12.6659 16.4495 12.4269C16.9872 12.1879 17.6046 12.4468 17.8435 12.9845C18.0626 13.5222 17.8236 14.1395 17.2859 14.3785Z" fill="#3C2C84"/>
<path d="M40.276 6.97109C39.5729 6.96346 38.873 7.06955 38.2035 7.28529C37.6056 7.47504 37.0455 7.76826 36.5483 8.15171C36.0859 8.5185 35.7101 8.98346 35.448 9.51324C35.1807 10.0446 35.0426 10.6318 35.0448 11.227C35.0326 11.677 35.1203 12.1241 35.3016 12.5358C35.4829 12.9475 35.7532 13.3135 36.093 13.6073C36.4603 13.9278 36.8648 14.2028 37.2976 14.4262C37.8174 14.6967 38.3509 14.9398 38.8959 15.1545C39.211 15.282 39.5183 15.4283 39.816 15.5925L40.0199 15.702C40.2792 15.8297 40.5214 15.9897 40.7408 16.1781C40.8786 16.2974 40.9915 16.443 41.0728 16.6065C41.1363 16.7571 41.1686 16.9191 41.1677 17.0826C41.1745 17.3382 41.114 17.5911 40.9922 17.8157C40.8561 18.0573 40.6682 18.2654 40.442 18.4251C40.1731 18.615 39.8751 18.7597 39.5599 18.8535C38.9526 18.9737 38.3337 19.0248 37.715 19.0058H32.6166L32 21.2719H38.3647C39.0682 21.2822 39.769 21.1826 40.442 20.9767C41.0604 20.7822 41.6388 20.4774 42.1494 20.077C42.631 19.6982 43.027 19.2211 43.3114 18.6774C43.5975 18.1267 43.7426 17.5132 43.7335 16.8921C43.7397 16.44 43.6542 15.9914 43.4821 15.5735C43.3087 15.1775 43.0588 14.8199 42.747 14.5214C42.4104 14.1872 42.0289 13.9019 41.6135 13.674C41.1226 13.41 40.6139 13.1809 40.0911 12.9885C39.7259 12.8456 39.4461 12.7076 39.171 12.5695L38.9101 12.4458C38.6246 12.3177 38.3541 12.158 38.1039 11.9697C37.9503 11.853 37.8227 11.7055 37.7292 11.5365C37.6577 11.388 37.6205 11.2253 37.6201 11.0604C37.6208 10.8398 37.6745 10.6226 37.7766 10.4273C37.8947 10.204 38.056 10.0066 38.2509 9.84648C38.4965 9.65247 38.7765 9.50707 39.0761 9.41803C39.4502 9.29797 39.8406 9.23694 40.2334 9.23713H45.5499L46.1665 6.97585L40.276 6.97109Z" fill="#3C2C84"/>
<path d="M55.6467 7.28578C54.8764 7.06167 54.0772 6.95417 53.2753 6.96682H48.7271L48.6702 7.18581L44.876 21.2581H47.437L48.7081 16.5451H51.4826C52.4275 16.5538 53.3696 16.4402 54.2855 16.2071C55.0878 16.0013 55.8462 15.6513 56.5241 15.1741C57.1632 14.7274 57.6813 14.1278 58.0316 13.4296C58.3819 12.7314 58.5533 11.9566 58.5303 11.1752C58.5498 10.6544 58.4626 10.1352 58.2742 9.64961C58.0857 9.16402 57.8 8.72243 57.4347 8.35215C56.9354 7.85415 56.3212 7.48782 55.6467 7.28578ZM54.9685 13.4317C54.2049 13.9649 53.0714 14.241 51.5917 14.241H49.3389L50.6668 9.33283H53.2564C54.3235 9.33283 55.0965 9.5661 55.5613 10.0326C55.7222 10.1942 55.8476 10.3878 55.9293 10.601C56.011 10.8142 56.0472 11.0422 56.0356 11.2704C56.0617 11.6929 55.9769 12.1148 55.7897 12.4941C55.6024 12.8734 55.3192 13.1967 54.9685 13.4317Z" fill="#3C2C84"/>
<path d="M83.3966 17.0592C82.9544 17.661 82.3788 18.1515 81.7154 18.4918C81.0521 18.8322 80.319 19.0132 79.574 19.0206C79.0464 19.0536 78.5177 18.9772 78.0208 18.7962C77.5239 18.6152 77.0694 18.3335 76.6857 17.9685C76.3586 17.5889 76.1131 17.1456 75.9646 16.6664C75.8161 16.1872 75.7677 15.6824 75.8225 15.1836C75.998 11.7559 78.2982 9.26616 81.2861 9.26616C82.03 9.2443 82.7643 9.43956 83.3999 9.82826C84.0355 10.217 84.5451 10.7824 84.8669 11.456L85.0044 11.7559L86.9015 10.5991L87.1244 10.4611L87.0201 10.223C86.1189 8.20455 84.0748 6.98584 81.5422 6.9668H81.4806C76.9845 6.9668 73.5412 10.4182 73.2946 15.1645C73.2237 15.9511 73.3161 16.7439 73.5659 17.4928C73.8157 18.2417 74.2175 18.9305 74.7459 19.5157C75.8557 20.6868 77.4635 21.3057 79.4032 21.3057C80.3691 21.3047 81.3249 21.1097 82.2144 20.7319C83.1039 20.3542 83.9091 19.8014 84.5823 19.1063L83.3966 17.0592Z" fill="#3C2C84"/>
<path d="M97.6345 17.0591C97.185 17.6697 96.5989 18.1657 95.9233 18.5072C95.2478 18.8487 94.5018 19.0262 93.7455 19.0252C93.2291 19.0466 92.7136 18.9646 92.2291 18.784C91.7446 18.6033 91.3008 18.3277 90.9235 17.9731C90.6047 17.5952 90.3644 17.1571 90.217 16.6845C90.0696 16.2119 90.0179 15.7145 90.0651 15.2215L100.153 15.1787L100.224 14.993C100.472 14.3789 100.657 13.7408 100.774 13.0888C101.063 11.3178 100.717 9.78968 99.764 8.66618C99.2757 8.11817 98.6745 7.68322 98.0022 7.39141C97.3299 7.09961 96.6024 6.95793 95.8702 6.97617C93.7072 7.00976 91.6392 7.87368 90.0911 9.39038C88.5431 10.9071 87.6326 12.9614 87.5467 15.1311C87.4756 15.9018 87.5612 16.679 87.7985 17.4156C88.0357 18.1521 88.4196 18.8325 88.9269 19.4156C89.994 20.5819 91.6871 21.2294 93.6364 21.2912C95.5921 21.2704 97.463 20.4868 98.8534 19.1061L97.6345 17.0591ZM98.2558 13.1078H90.4682C90.7926 12.0649 91.4219 11.144 92.2745 10.4649C93.127 9.78568 94.1634 9.37958 95.2489 9.29934H95.6141C96.0327 9.27639 96.451 9.35032 96.8367 9.5154C97.2224 9.68049 97.5651 9.93232 97.8384 10.2515C98.3696 10.8608 98.5261 11.8701 98.2558 13.1078Z" fill="#3C2C84"/>
<path d="M70.482 8.11837C69.5335 7.35668 68.2245 6.98535 66.465 6.98535H64.2549H61.9309H61.561L62.9222 9.31804H66.1567C67.2902 9.31804 68.1344 9.5275 68.6608 9.94643C68.9206 10.1606 69.1259 10.4338 69.2595 10.7434C69.3931 11.053 69.4513 11.3902 69.4292 11.7269C69.4285 11.9167 69.4126 12.1061 69.3817 12.2934C69.3533 12.4891 69.3137 12.683 69.2632 12.8742C68.6846 12.7171 68.0443 12.5743 67.3661 12.4505C66.516 12.2993 65.6541 12.2244 64.7908 12.2268C63.9671 12.2206 63.1471 12.3377 62.3578 12.5743C61.6521 12.7852 60.9902 13.1223 60.4038 13.5692C59.848 13.9961 59.401 14.5492 59.0995 15.1831C58.7814 15.845 58.6191 16.5714 58.6253 17.3063C58.6106 17.8705 58.7268 18.4304 58.9647 18.9418C59.2025 19.4532 59.5556 19.9021 59.9959 20.2531C60.4205 20.5888 60.9027 20.8437 61.4187 21.0053C61.9615 21.1788 62.528 21.2656 63.0976 21.2623C63.9462 21.2701 64.7878 21.1083 65.5733 20.7863C66.324 20.4168 67.0454 19.9903 67.7313 19.5104L68.5897 20.9767H69.5952L71.6677 13.2931C71.7322 13.0441 71.7813 12.7913 71.8147 12.5362C71.8147 12.46 71.8147 12.3839 71.8527 12.3124C71.9051 11.9978 71.9321 11.6794 71.9333 11.3603C71.9579 10.7441 71.8396 10.1305 71.5877 9.56793C71.3359 9.00536 70.9574 8.50915 70.482 8.11837ZM68.5328 15.6163C68.5043 15.721 67.7977 18.2489 64.3023 18.9915C63.9896 19.051 63.6719 19.0797 63.3537 19.0772C62.9796 19.081 62.6066 19.0362 62.2439 18.9439C62.0189 18.8811 61.809 18.7725 61.6274 18.625C61.4125 18.4443 61.2421 18.2163 61.1294 17.9586C61.0167 17.701 60.9648 17.4207 60.9776 17.1397C60.9841 16.7357 61.0865 16.3391 61.2764 15.9829C61.5109 15.6228 61.81 15.3096 62.1586 15.0593C62.5032 14.8012 62.8923 14.6092 63.3063 14.4928C63.8016 14.3441 64.3165 14.2718 64.8335 14.2786C66.1464 14.2685 67.4551 14.4285 68.7272 14.7546L68.5328 15.6163Z" fill="#3C2C84"/>
<path d="M145.526 9.66602L144.829 12.251H152.342L151.464 15.493H143.952L143.198 18.2827H151.645L150.743 21.6151H138.057L142.197 6.28125H153.94L153.039 9.61366L145.526 9.66602Z" fill="#3C2C84"/>
<path d="M139.564 6.31445L135.424 21.6483H131.914L126.982 13.2363L124.71 21.6531H120.484L124.611 6.31445H128.158L133.057 14.6883L135.315 6.31445H139.564Z" fill="#3C2C84"/>
<path d="M103.51 15.2308C103.885 9.88939 108.092 6 113.702 6C118.412 6 121.125 8.79446 120.85 12.7695C120.48 18.1062 116.268 21.9956 110.643 21.9956C105.953 21.9956 103.235 19.2059 103.51 15.2308ZM116.425 13.0457C116.567 11.0034 115.362 9.61804 113.105 9.61804C110.136 9.61804 108.168 12.0793 107.964 14.9785C107.821 17.0255 109.026 18.4061 111.284 18.4061C114.253 18.3918 116.221 15.9306 116.425 13.0457Z" fill="#3C2C84"/>
</svg>
