<svg width="458" height="80" viewBox="0 0 458 80" fill="none" xmlns="http://www.w3.org/2000/svg">
<mask id="mask0" mask-type="alpha" maskUnits="userSpaceOnUse" x="0" y="0" width="80" height="80">
<g clip-path="url(#clip0)">
<path d="M18.0381 20.4114C18.0381 20.148 17.96 19.8906 17.8137 19.6716C17.6674 19.4526 17.4595 19.282 17.2161 19.1812C16.9728 19.0804 16.7051 19.054 16.4468 19.1054C16.1885 19.1568 15.9512 19.2836 15.765 19.4698C15.5788 19.6561 15.452 19.8933 15.4006 20.1516C15.3492 20.4099 15.3756 20.6777 15.4764 20.921C15.5771 21.1643 15.7478 21.3723 15.9668 21.5186C16.1858 21.6649 16.4432 21.743 16.7066 21.743C16.8815 21.7434 17.0549 21.7092 17.2166 21.6424C17.3783 21.5757 17.5253 21.4776 17.649 21.3539C17.7727 21.2301 17.8708 21.0832 17.9376 20.9214C18.0044 20.7597 18.0385 20.5864 18.0381 20.4114Z" fill="#F6F6F6"/>
<path d="M17.6908 26.0908C17.5072 26.0896 17.3274 26.143 17.1742 26.2441C17.021 26.3452 16.9012 26.4896 16.8301 26.6589C16.759 26.8281 16.7398 27.0147 16.7749 27.1949C16.81 27.3751 16.8978 27.5409 17.0272 27.6711C17.1566 27.8014 17.3217 27.8902 17.5017 27.9265C17.6817 27.9628 17.8684 27.9448 18.0381 27.8748C18.2078 27.8048 18.353 27.686 18.4551 27.5334C18.5572 27.3809 18.6117 27.2014 18.6117 27.0178C18.6117 26.773 18.5149 26.5381 18.3424 26.3645C18.1698 26.1908 17.9356 26.0924 17.6908 26.0908Z" fill="#F6F6F6"/>
<path d="M14.246 38.8963L12.383 38.3649C12.3683 38.3601 12.3548 38.3523 12.3433 38.3419C12.3318 38.3314 12.3227 38.3187 12.3166 38.3045L11.6795 36.4717C11.6733 36.4521 11.661 36.4351 11.6445 36.4229C11.6279 36.4108 11.6079 36.4043 11.5874 36.4043C11.5669 36.4043 11.5469 36.4108 11.5304 36.4229C11.5138 36.4351 11.5015 36.4521 11.4953 36.4717L10.9639 38.3377C10.96 38.3525 10.9524 38.3661 10.9419 38.3772C10.9313 38.3883 10.9181 38.3965 10.9035 38.4011L9.07373 39.0412C9.05418 39.0474 9.03711 39.0597 9.025 39.0763C9.01288 39.0928 9.00635 39.1128 9.00635 39.1333C9.00635 39.1538 9.01288 39.1738 9.025 39.1904C9.03711 39.2069 9.05418 39.2192 9.07373 39.2254L10.9367 39.7568C10.9515 39.7607 10.9651 39.7683 10.9762 39.7789C10.9873 39.7894 10.9955 39.8026 11.0001 39.8172L11.6403 41.65C11.6465 41.6696 11.6587 41.6867 11.6753 41.6988C11.6918 41.7109 11.7118 41.7174 11.7324 41.7174C11.7529 41.7174 11.7729 41.7109 11.7894 41.6988C11.806 41.6867 11.8182 41.6696 11.8244 41.65L12.3559 39.784C12.3596 39.7688 12.367 39.7547 12.3776 39.7431C12.3881 39.7315 12.4014 39.7227 12.4163 39.7176L14.246 39.0805C14.2656 39.0743 14.2827 39.062 14.2948 39.0454C14.3069 39.0289 14.3134 39.0089 14.3134 38.9884C14.3134 38.9679 14.3069 38.9479 14.2948 38.9313C14.2827 38.9148 14.2656 38.9025 14.246 38.8963Z" fill="#F6F6F6"/>
<path d="M53.7069 61.364C53.5925 61.4528 53.4713 61.5326 53.3445 61.6026C49.3921 63.7826 44.7603 65.2259 39.8809 65.2108C35.0015 65.1957 30.5206 63.7645 26.5953 61.5875C26.4594 61.5132 26.33 61.4274 26.2089 61.3308C23.7383 62.8843 21.5737 64.8779 19.8228 67.2127C25.6442 71.5352 32.7002 73.8734 39.9509 73.8827C47.2017 73.8919 54.2636 71.5717 60.096 67.264C58.3458 64.9225 56.1801 62.9226 53.7069 61.364Z" fill="#F6F6F6"/>
<path d="M52.7436 17.6941C53.0071 17.6947 53.2648 17.6172 53.4842 17.4712C53.7036 17.3253 53.8747 17.1175 53.976 16.8742C54.0772 16.631 54.104 16.3632 54.053 16.1047C54.0019 15.8462 53.8754 15.6086 53.6893 15.4221C53.5031 15.2356 53.2659 15.1084 53.0075 15.0568C52.7491 15.0052 52.4812 15.0314 52.2377 15.1321C51.9942 15.2328 51.7861 15.4034 51.6397 15.6225C51.4932 15.8415 51.415 16.0991 51.415 16.3626C51.4158 16.715 51.556 17.0527 51.8049 17.3022C52.0537 17.5517 52.3912 17.6926 52.7436 17.6941V17.6941Z" fill="#F6F6F6"/>
<path d="M36.0429 13.4123C36.384 13.4129 36.7176 13.3123 37.0015 13.1232C37.2855 12.9341 37.5069 12.6651 37.6379 12.3501C37.7688 12.0351 37.8034 11.6884 37.7372 11.3537C37.671 11.0191 37.5071 10.7116 37.2661 10.4702C37.0251 10.2287 36.7179 10.0642 36.3833 9.99746C36.0488 9.93069 35.702 9.96466 35.3868 10.0951C35.0716 10.2255 34.8021 10.4464 34.6126 10.73C34.423 11.0136 34.3218 11.3471 34.3218 11.6882C34.3214 11.9145 34.3656 12.1386 34.4519 12.3478C34.5382 12.5569 34.6649 12.747 34.8248 12.9072C34.9847 13.0673 35.1745 13.1943 35.3835 13.281C35.5925 13.3677 35.8166 13.4123 36.0429 13.4123V13.4123Z" fill="#F6F6F6"/>
<path d="M49.0933 11.1752C49.2725 11.1752 49.4476 11.1221 49.5966 11.0225C49.7455 10.923 49.8616 10.7815 49.9302 10.616C49.9988 10.4505 50.0167 10.2683 49.9818 10.0926C49.9468 9.91692 49.8605 9.75552 49.7338 9.62884C49.6072 9.50215 49.4458 9.41588 49.27 9.38093C49.0943 9.34598 48.9122 9.36392 48.7467 9.43248C48.5812 9.50104 48.4397 9.61714 48.3402 9.7661C48.2406 9.91506 48.1875 10.0902 48.1875 10.2694C48.1875 10.5096 48.2829 10.74 48.4528 10.9099C48.6227 11.0798 48.8531 11.1752 49.0933 11.1752Z" fill="#F6F6F6"/>
<path d="M31.1156 41.472C30.7121 41.4304 30.3054 41.5095 29.9469 41.6992C29.5883 41.8889 29.2941 42.1807 29.1015 42.5376C28.9088 42.8945 28.8264 43.3006 28.8646 43.7044C28.9028 44.1082 29.0599 44.4917 29.316 44.8061C29.5722 45.1206 29.9159 45.3521 30.3036 45.4712C30.6914 45.5903 31.1057 45.5917 31.4943 45.4753C31.8828 45.3588 32.2281 45.1297 32.4864 44.817C32.7447 44.5043 32.9044 44.122 32.9454 43.7184C32.9994 43.1781 32.8372 42.6384 32.4943 42.2174C32.1514 41.7964 31.6557 41.5284 31.1156 41.472Z" fill="#F6F6F6"/>
<path d="M46.463 35.9072C45.9592 36.1249 45.5312 36.487 45.2332 36.9479C44.9352 37.4088 44.7806 37.9478 44.7889 38.4965C44.7972 39.0453 44.9681 39.5793 45.2799 40.031C45.5917 40.4827 46.0304 40.8317 46.5406 41.034C47.0508 41.2363 47.6095 41.2828 48.1462 41.1675C48.6828 41.0523 49.1731 40.7805 49.5553 40.3865C49.9374 39.9925 50.1941 39.4941 50.2929 38.9542C50.3918 38.4144 50.3283 37.8573 50.1105 37.3535C49.8185 36.6781 49.2703 36.1463 48.5863 35.8751C47.9023 35.6038 47.1385 35.6154 46.463 35.9072V35.9072Z" fill="#F6F6F6"/>
<path d="M72.6629 34.8505L71.2045 34.4338C71.1931 34.4306 71.1825 34.4249 71.1736 34.417C71.1647 34.4092 71.1578 34.3994 71.1532 34.3885L70.655 32.9543C70.6504 32.9386 70.6409 32.9248 70.6278 32.915C70.6147 32.9052 70.5988 32.8999 70.5825 32.8999C70.5662 32.8999 70.5503 32.9052 70.5372 32.915C70.5241 32.9248 70.5146 32.9386 70.51 32.9543L70.0964 34.4157C70.0931 34.4275 70.087 34.4384 70.0786 34.4473C70.0702 34.4563 70.0597 34.463 70.0481 34.467L68.6168 34.9652C68.6012 34.9698 68.5874 34.9793 68.5776 34.9924C68.5678 35.0054 68.5625 35.0213 68.5625 35.0377C68.5625 35.054 68.5678 35.0699 68.5776 35.083C68.5874 35.096 68.6012 35.1056 68.6168 35.1101L70.0752 35.5268C70.0867 35.53 70.0972 35.5357 70.1061 35.5436C70.115 35.5514 70.122 35.5612 70.1266 35.5721L70.6248 37.0063C70.6293 37.022 70.6389 37.0358 70.6519 37.0456C70.665 37.0554 70.6809 37.0607 70.6972 37.0607C70.7136 37.0607 70.7295 37.0554 70.7425 37.0456C70.7556 37.0358 70.7651 37.022 70.7697 37.0063L71.1864 35.5449C71.1896 35.5335 71.1953 35.523 71.2031 35.5141C71.211 35.5052 71.2207 35.4982 71.2317 35.4936L72.6629 34.9954C72.6786 34.9908 72.6923 34.9813 72.7021 34.9682C72.7119 34.9552 72.7172 34.9393 72.7172 34.9229C72.7172 34.9066 72.7119 34.8907 72.7021 34.8776C72.6923 34.8646 72.6786 34.855 72.6629 34.8505Z" fill="#F6F6F6"/>
<path d="M39.9986 1.13986e-07C32.087 1.13986e-07 24.3532 2.34605 17.7749 6.74147C11.1967 11.1369 6.06964 17.3843 3.04202 24.6936C0.0144035 32.0029 -0.777761 40.0459 0.765706 47.8054C2.30917 55.565 6.11895 62.6925 11.7133 68.2869C17.3076 73.8812 24.4352 77.6909 32.1947 79.2344C39.9542 80.7779 47.9972 79.9857 55.3065 76.9581C62.6158 73.9305 68.8632 68.8034 73.2586 62.2252C77.654 55.6469 80.0001 47.9131 80.0001 40.0015C80.0005 34.7483 78.9661 29.5465 76.956 24.6931C74.9459 19.8397 71.9994 15.4299 68.2848 11.7153C64.5702 8.00073 60.1604 5.05425 55.307 3.04413C50.4536 1.034 45.2518 -0.000396458 39.9986 1.13986e-07V1.13986e-07ZM39.9412 76.8417C32.6558 76.8297 25.5375 74.6577 19.4865 70.6004C13.4354 66.543 8.72333 60.7824 5.94608 54.0471C3.16883 47.3118 2.45113 39.9042 3.88372 32.761C5.31631 25.6178 8.83486 19.0598 13.9945 13.9163C19.1541 8.77271 25.723 5.2746 32.8706 3.86426C40.0182 2.45392 47.4235 3.19469 54.1502 5.99291C60.8768 8.79112 66.6227 13.5211 70.6612 19.5848C74.6997 25.6484 76.8495 32.7735 76.8388 40.0589C76.8316 44.8969 75.8715 49.6862 74.0133 54.1531C72.1551 58.6201 69.4352 62.6772 66.0088 66.0929C62.5825 69.5086 58.5169 72.2159 54.0442 74.0602C49.5715 75.9044 44.7793 76.8496 39.9412 76.8417V76.8417Z" fill="#F6F6F6"/>
<path d="M68.4626 27.1568L66.1799 26.5046C66.1618 26.5 66.1451 26.491 66.1314 26.4784C66.1177 26.4657 66.1074 26.4498 66.1014 26.4321L65.3193 24.1887C65.3115 24.1652 65.2965 24.1448 65.2765 24.1304C65.2564 24.1159 65.2323 24.1082 65.2076 24.1082C65.1829 24.1082 65.1588 24.1159 65.1388 24.1304C65.1187 24.1448 65.1037 24.1652 65.0959 24.1887L64.4437 26.4744C64.4391 26.4925 64.4301 26.5092 64.4175 26.5229C64.4048 26.5366 64.3889 26.5469 64.3712 26.5529L62.1308 27.3561C62.1062 27.3631 62.0846 27.378 62.0692 27.3984C62.0537 27.4188 62.0454 27.4437 62.0454 27.4693C62.0454 27.4949 62.0537 27.5198 62.0692 27.5402C62.0846 27.5607 62.1062 27.5755 62.1308 27.5825L64.4135 28.2317C64.4316 28.2373 64.4481 28.247 64.4618 28.2601C64.4754 28.2732 64.4858 28.2893 64.492 28.3072L65.2741 30.5506C65.2819 30.5741 65.2969 30.5945 65.3169 30.6089C65.337 30.6234 65.3611 30.6312 65.3858 30.6312C65.4105 30.6312 65.4346 30.6234 65.4546 30.6089C65.4747 30.5945 65.4897 30.5741 65.4975 30.5506L66.1497 28.2649C66.1543 28.2468 66.1633 28.2302 66.1759 28.2165C66.1886 28.2027 66.2045 28.1924 66.2222 28.1864L68.4656 27.4014C68.498 27.401 68.529 27.3877 68.5516 27.3645C68.5743 27.3413 68.5868 27.31 68.5864 27.2776C68.586 27.2451 68.5727 27.2142 68.5495 27.1915C68.5263 27.1689 68.495 27.1564 68.4626 27.1568V27.1568Z" fill="#F6F6F6"/>
<path d="M40.0167 19.0767C35.8768 19.0767 31.83 20.3043 28.3879 22.6043C24.9458 24.9044 22.263 28.1735 20.6789 31.9982C19.0948 35.823 18.6805 40.0316 19.4883 44.0919C20.2962 48.1521 22.29 51.8816 25.2175 54.8087C28.145 57.7358 31.8748 59.729 35.9351 60.5363C39.9955 61.3436 44.2041 60.9287 48.0286 59.344C51.8532 57.7594 55.1219 55.0761 57.4214 51.6337C59.721 48.1913 60.948 44.1442 60.9474 40.0044C60.9466 34.4537 58.7411 29.1307 54.8159 25.2061C50.8907 21.2814 45.5673 19.0767 40.0167 19.0767V19.0767ZM40.0167 57.8372C37.0203 57.8326 34.0903 56.9539 31.5858 55.3088C29.0814 53.6637 27.1113 51.3237 25.9171 48.5756C24.7228 45.8274 24.3563 42.7906 24.8623 39.8372C25.3684 36.8838 26.7252 34.1423 28.7663 31.9485V31.9485C29.5241 31.1182 28.6666 29.687 28.3224 29.1344C27.9691 28.6453 27.6672 28.0021 27.9148 27.6247C28.2167 27.1718 28.7814 27.1053 29.3611 27.2231C31.058 27.5703 32.3171 28.3826 32.5466 28.1289C32.6915 27.9659 32.3805 27.4888 32.2054 27.2231C31.7948 26.6192 31.7646 25.961 32.1239 25.7134C32.4832 25.4658 33.1595 25.5141 33.537 25.6862C34.0654 25.9247 34.6844 26.1723 35.9525 26.7641C36.3964 26.9695 37.586 27.1627 39.0867 27.0661C39.4037 27.048 39.7238 27.0359 40.0469 27.0359C44.131 27.0359 48.0478 28.6583 50.9357 31.5462C53.8236 34.4341 55.446 38.3509 55.446 42.435C55.446 46.5191 53.8236 50.436 50.9357 53.3239C48.0478 56.2118 44.131 57.8342 40.0469 57.8342L40.0167 57.8372Z" fill="#F6F6F6"/>
<path d="M65.3978 48.3774C65.1617 48.3768 64.9307 48.4464 64.7341 48.5772C64.5375 48.708 64.3842 48.8943 64.2935 49.1123C64.2029 49.3304 64.179 49.5704 64.2249 49.8021C64.2708 50.0337 64.3845 50.2465 64.5515 50.4135C64.7185 50.5805 64.9313 50.6941 65.1629 50.74C65.3945 50.786 65.6346 50.7621 65.8526 50.6714C66.0707 50.5808 66.2569 50.4275 66.3878 50.2309C66.5186 50.0343 66.5881 49.8033 66.5875 49.5671C66.5867 49.2518 66.4611 48.9497 66.2382 48.7268C66.0152 48.5038 65.7131 48.3782 65.3978 48.3774V48.3774Z" fill="#F6F6F6"/>
</g>
</mask>
<g mask="url(#mask0)">
<rect width="80" height="80" fill="url(#paint0_linear)"/>
</g>
<path d="M117.875 18.8841C115.749 18.8553 113.632 19.1676 111.605 19.8089C109.825 20.3862 108.156 21.2607 106.668 22.3951C105.264 23.4849 104.119 24.8711 103.313 26.4547C102.512 28.0325 102.098 29.7789 102.107 31.5487C102.076 32.8851 102.341 34.2118 102.883 35.4338C103.425 36.6558 104.23 37.743 105.241 38.6177C106.341 39.5734 107.552 40.3943 108.846 41.0628C110.374 41.8664 111.944 42.5885 113.549 43.2258C114.485 43.6108 115.401 44.045 116.292 44.5268L116.903 44.8559C117.676 45.2384 118.398 45.7177 119.05 46.2822C119.459 46.6373 119.794 47.0686 120.038 47.5519C120.231 48.002 120.328 48.4881 120.32 48.9782C120.339 49.7438 120.155 50.5009 119.787 51.1726C119.397 51.8767 118.863 52.4909 118.219 52.9751C117.416 53.538 116.527 53.9668 115.586 54.2446C113.77 54.6012 111.919 54.7537 110.069 54.6992H94.8495L93 61.439H112.075C114.198 61.4748 116.313 61.1787 118.345 60.5613C120.189 59.9796 121.915 59.0718 123.439 57.881C124.877 56.7533 126.058 55.3319 126.903 53.7117C127.767 52.0759 128.204 50.2481 128.172 48.3982C128.193 47.0543 127.937 45.7206 127.42 44.4797C126.896 43.3041 126.151 42.2399 125.226 41.3449C124.203 40.3623 123.048 39.5286 121.793 38.8685C120.326 38.0876 118.807 37.4068 117.248 36.8308C116.166 36.392 115.32 35.9845 114.489 35.5769L113.721 35.2008C112.863 34.8216 112.053 34.3429 111.307 33.7744C110.847 33.4283 110.462 32.9907 110.179 32.4892C109.965 32.0278 109.858 31.5242 109.865 31.0158C109.868 30.3601 110.03 29.7149 110.335 29.1349C110.702 28.4647 111.197 27.8734 111.793 27.3951C112.53 26.8275 113.364 26.3974 114.254 26.1255C115.378 25.7919 116.545 25.6282 117.718 25.6396H133.627L135.476 18.9155L117.875 18.8841Z" fill="white"/>
<path d="M163.8 19.8245C161.515 19.1589 159.143 18.8367 156.763 18.8683H143.173L143.001 19.5267L131.637 61.4075H139.286L143.095 47.3793H151.386C154.209 47.4049 157.022 47.0624 159.756 46.3605C162.157 45.7393 164.422 44.6762 166.433 43.2257C168.288 41.9044 169.812 40.1716 170.885 38.163C171.96 36.0427 172.499 33.6906 172.452 31.3135C172.507 29.7638 172.245 28.2192 171.682 26.7745C171.119 25.3298 170.266 24.0155 169.176 22.9122C167.66 21.4638 165.815 20.4043 163.8 19.8245ZM161.763 38.1003C159.49 39.6677 156.089 40.5141 151.669 40.5141H144.944L148.91 25.9216H156.653C159.788 25.9216 162.154 26.6113 163.534 27.9906C164.011 28.4732 164.381 29.0502 164.621 29.6846C164.861 30.319 164.966 30.9967 164.929 31.674C165.01 32.9286 164.76 34.1825 164.205 35.3103C163.649 36.4381 162.807 37.4002 161.763 38.1003V38.1003Z" fill="white"/>
<path d="M246.684 48.8997C245.367 50.6936 243.65 52.1558 241.669 53.1707C239.688 54.1855 237.499 54.7249 235.273 54.7461C233.696 54.8431 232.115 54.6149 230.629 54.0756C229.144 53.5364 227.785 52.6976 226.637 51.6113C225.666 50.4799 224.936 49.1626 224.491 47.7397C224.047 46.3168 223.897 44.8183 224.051 43.3355C224.583 33.1161 231.449 25.7179 240.383 25.7179C242.605 25.6539 244.797 26.234 246.697 27.3881C248.596 28.5423 250.121 30.2213 251.088 32.2227L251.496 33.1317L257.185 29.6834L257.859 29.2759L257.53 28.5706C254.85 22.5518 248.737 18.9311 241.182 18.8684H240.994C227.562 18.8684 217.279 29.1349 216.543 43.2728C216.327 45.614 216.601 47.9746 217.349 50.2038C218.096 52.433 219.301 54.4818 220.884 56.2195C222.709 58.0187 224.886 59.421 227.278 60.3381C229.671 61.2552 232.228 61.6674 234.787 61.5486C237.673 61.548 240.53 60.9677 243.187 59.8423C245.845 58.7168 248.249 57.0691 250.257 54.9969L246.684 48.8997Z" fill="white"/>
<path d="M289.223 48.8997C287.884 50.7204 286.134 52.1999 284.116 53.2184C282.098 54.2368 279.869 54.7656 277.609 54.7618V54.7618C276.065 54.8263 274.524 54.5823 273.076 54.044C271.628 53.5058 270.302 52.684 269.176 51.627C268.218 50.5038 267.497 49.1989 267.055 47.7903C266.613 46.3818 266.46 44.8985 266.605 43.4295L296.747 43.3198L296.966 42.7712C297.673 40.9466 298.198 39.0565 298.533 37.1285C299.042 34.8508 299.036 32.4881 298.516 30.213C297.995 27.9379 296.973 25.8077 295.524 23.9781C294.067 22.3458 292.271 21.0502 290.263 20.1814C288.255 19.3125 286.081 18.8913 283.894 18.9467C277.428 19.0421 271.246 21.6126 266.618 26.1292C261.991 30.6457 259.271 36.7645 259.019 43.2257C258.804 45.5184 259.059 47.8308 259.768 50.0218C260.477 52.2127 261.625 54.2362 263.141 55.9687C266.276 59.4326 271.386 61.3605 277.248 61.5486C283.078 61.476 288.652 59.1441 292.797 55.0439L289.223 48.8997ZM291.073 37.1442H267.812C268.773 34.0323 270.65 31.2822 273.197 29.2524C275.744 27.2226 278.843 26.0073 282.091 25.7649H283.173C284.422 25.6928 285.672 25.9066 286.826 26.39C287.98 26.8735 289.009 27.6139 289.834 28.5549C291.417 30.4671 291.841 33.4608 291.073 37.1442Z" fill="white"/>
<path d="M208.11 22.3011C205.305 20.0283 201.371 18.9312 196.104 18.9312H189.505H182.578H181.465L185.524 25.8747H195.179C197.813 25.6697 200.442 26.3242 202.672 27.7399C203.446 28.3786 204.059 29.1915 204.459 30.1123C204.86 31.0331 205.037 32.0355 204.976 33.0377C204.974 33.6055 204.921 34.172 204.819 34.7305C204.725 35.3731 204.6 35.9531 204.474 36.4547C202.74 35.9844 200.843 35.5612 198.784 35.1851C196.248 34.7459 193.678 34.5256 191.104 34.5267C188.642 34.5029 186.19 34.8517 183.832 35.5612C181.724 36.1865 179.748 37.1904 178.001 38.5236C176.344 39.8007 175.003 41.4417 174.082 43.3199C173.161 45.2808 172.69 47.4229 172.703 49.5895C172.665 51.2678 173.016 52.9321 173.728 54.4521C174.441 55.9721 175.495 57.3067 176.81 58.3512C178.075 59.3444 179.509 60.1034 181.042 60.5926C182.669 61.105 184.366 61.3641 186.073 61.3606C188.608 61.388 191.124 60.9084 193.471 59.95C195.711 58.8501 197.865 57.5822 199.913 56.1569L202.484 60.5142H205.477L211.668 37.6459C211.86 36.9084 212.007 36.1599 212.107 35.4045C212.107 35.1694 212.186 34.9499 212.217 34.7305C212.371 33.8032 212.45 32.8649 212.452 31.9249C212.52 30.0945 212.164 28.2731 211.411 26.6035C210.657 24.9338 209.528 23.4612 208.11 22.3011V22.3011ZM202.295 44.6052C202.201 44.9343 200.085 52.4421 189.647 54.6678C188.737 54.8372 187.813 54.9212 186.888 54.9186C185.769 54.9222 184.653 54.7907 183.565 54.5268C182.418 54.194 181.418 53.48 180.732 52.5026C180.045 51.5251 179.712 50.3428 179.788 49.1506C179.806 47.9463 180.112 46.7639 180.681 45.7023C181.383 44.634 182.276 43.7042 183.314 42.9594C184.344 42.1911 185.508 41.6223 186.747 41.2823C188.226 40.8386 189.764 40.6219 191.308 40.6396C193.585 40.6286 195.859 40.7911 198.111 41.1255C199.735 41.3676 201.346 41.692 202.938 42.0973L202.295 44.6052Z" fill="white"/>
<path d="M432.295 26.9093L430.211 34.6052H452.64L450.023 44.2447H427.593L425.336 52.599H450.602L447.907 62.5676H409.976L422.342 16.9407H457.421L454.725 26.9093H432.295Z" fill="white"/>
<path d="M414.473 16.9407L402.122 62.5676H391.636L376.919 37.4893L370.132 62.5676H357.483L369.85 16.925H380.445L395.085 41.831L401.825 16.925L414.473 16.9407Z" fill="white"/>
<path d="M306.778 43.4608C307.891 27.5831 320.461 16 337.264 16C351.37 16 359.443 24.3072 358.612 36.1411C357.499 52.0345 344.928 63.6019 328.126 63.6019C314.066 63.6019 305.947 55.2947 306.778 43.4608ZM345.352 36.9248C345.775 30.8433 342.217 26.721 335.383 26.721C326.527 26.721 320.649 34.0564 320.038 42.6771C319.615 48.7586 323.173 52.8809 330.007 52.8809C338.863 52.8809 344.756 45.5612 345.352 36.9248Z" fill="white"/>
<defs>
<linearGradient id="paint0_linear" x1="-9.09495e-10" y1="40" x2="80" y2="40" gradientUnits="userSpaceOnUse">
<stop stop-color="#65CBA0"/>
<stop offset="0.520833" stop-color="#CF88A0"/>
<stop offset="1" stop-color="#A8A5CE"/>
</linearGradient>
<clipPath id="clip0">
<rect width="80" height="80" fill="white"/>
</clipPath>
</defs>
</svg>
