<svg width="163" height="28" viewBox="0 0 163 28" fill="none" xmlns="http://www.w3.org/2000/svg">
<ellipse cx="17.8907" cy="26.2282" rx="1.75399" ry="1.77215" fill="white"/>
<path d="M9.82236 24.4561C6.33503 24.4561 3.50799 21.5998 3.50799 18.0764C3.50799 14.553 6.33503 11.6966 9.82236 11.6966C13.3097 11.6966 16.1367 14.553 16.1367 18.0764C16.1367 19.0551 16.922 19.8485 17.8907 19.8485C18.8594 19.8485 19.6447 19.0551 19.6447 18.0764C19.6447 12.5955 15.2471 8.15234 9.82236 8.15234C4.39762 8.15234 0 12.5955 0 18.0764C0 23.5573 4.39762 28.0004 9.82236 28.0004C10.7911 28.0004 11.5764 27.207 11.5764 26.2283C11.5764 25.2496 10.7911 24.4561 9.82236 24.4561Z" fill="url(#paint0_linear_4689_1667)"/>
<path d="M19.4512 16.1074C22.1837 15.4055 24.2048 12.9032 24.2048 9.92405C24.2048 6.40061 21.3778 3.5443 17.8904 3.5443C14.9418 3.5443 12.4652 5.58636 11.7704 8.34712C11.1407 8.21908 10.4891 8.15189 9.82206 8.15189C9.26994 8.15189 8.72846 8.19792 8.20117 8.28638C8.97387 3.58474 13.0178 0 17.8904 0C23.3152 0 27.7128 4.44315 27.7128 9.92405C27.7128 15.4049 23.3152 19.8481 17.8904 19.8481C18.8591 19.8481 19.6444 19.0547 19.6444 18.0759C19.6444 17.402 19.5779 16.7437 19.4512 16.1074Z" fill="url(#paint1_linear_4689_1667)"/>
<path d="M27.5199 11.8923C30.2523 12.5943 32.2734 15.0965 32.2734 18.0757C32.2734 21.5991 29.4464 24.4554 25.9591 24.4554C24.9904 24.4554 24.2051 25.2489 24.2051 26.2276C24.2051 27.2063 24.9904 27.9997 25.9591 27.9997C31.3838 27.9997 35.7814 23.5566 35.7814 18.0757C35.7814 13.1526 32.2334 9.06683 27.58 8.28613C27.6675 8.81888 27.7131 9.36596 27.7131 9.9238C27.7131 10.5978 27.6466 11.2561 27.5199 11.8923Z" fill="url(#paint2_linear_4689_1667)"/>
<ellipse cx="17.8907" cy="18.0759" rx="1.75399" ry="1.77215" fill="white"/>
<path d="M162.745 23.6087C162.745 22.9294 162.198 22.3793 161.523 22.3793C161.45 22.3793 161.379 22.3871 161.309 22.3989C161.17 22.4086 161.055 22.4272 160.889 22.4272C160.533 22.4272 160.252 22.3891 160.047 22.3137C159.839 22.2197 159.681 22.0876 159.568 21.9182C159.475 21.7489 159.409 21.5414 159.371 21.2967C159.353 21.0519 159.343 20.7593 159.343 20.4206V12.9235H162.088C162.347 12.9235 162.557 12.7121 162.557 12.4507V10.7485C162.557 10.4872 162.347 10.2757 162.088 10.2757H159.343V8.67628C159.343 8.32487 158.975 8.0968 158.664 8.25342L156.4 9.38889C156.242 9.46916 156.14 9.63262 156.14 9.81175V21.2399C156.158 21.8429 156.215 22.3803 156.309 22.8511C156.421 23.3219 156.618 23.7183 156.899 24.0384C157.199 24.3399 157.602 24.5758 158.107 24.7452C158.632 24.8959 159.315 24.9713 160.158 24.9713C160.514 24.9713 160.862 24.9527 161.197 24.9145C161.409 24.891 161.594 24.8665 161.74 24.8156C162.311 24.7129 162.746 24.2117 162.746 23.6068L162.745 23.6087ZM161.211 22.4214C161.211 22.4214 161.204 22.4233 161.201 22.4243C161.204 22.4243 161.208 22.4223 161.211 22.4214ZM161.11 22.4537C161.11 22.4537 161.101 22.4566 161.096 22.4586C161.101 22.4566 161.105 22.4556 161.11 22.4537ZM161.011 22.4948C161.011 22.4948 161.002 22.4987 160.997 22.5016C161.002 22.4997 161.006 22.4967 161.011 22.4948ZM160.914 22.5447C160.914 22.5447 160.908 22.5486 160.905 22.5506C160.908 22.5486 160.911 22.5467 160.914 22.5447ZM160.302 23.6087C160.302 23.5686 160.304 23.5284 160.308 23.4893C160.304 23.5284 160.302 23.5686 160.302 23.6087C160.302 23.9484 160.44 24.2557 160.66 24.4779C160.44 24.2557 160.302 23.9484 160.302 23.6087ZM160.602 22.8041C160.602 22.8041 160.594 22.8119 160.59 22.8168C160.594 22.8129 160.598 22.809 160.602 22.8041ZM160.549 22.8716C160.54 22.8834 160.531 22.8951 160.522 22.9069C160.531 22.8951 160.54 22.8834 160.549 22.8716ZM160.489 22.9578C160.479 22.9725 160.471 22.9881 160.462 23.0028C160.471 22.9871 160.48 22.9725 160.489 22.9578ZM160.436 23.0527C160.427 23.0703 160.418 23.088 160.41 23.1056C160.418 23.088 160.427 23.0703 160.436 23.0527ZM160.39 23.1545C160.382 23.1741 160.375 23.1937 160.369 23.2133C160.375 23.1937 160.382 23.1731 160.39 23.1545ZM160.353 23.2612C160.346 23.2828 160.341 23.3053 160.336 23.3278C160.341 23.3053 160.347 23.2828 160.353 23.2612ZM160.326 23.3728C160.321 23.3983 160.317 23.4247 160.314 23.4501C160.317 23.4237 160.321 23.3983 160.326 23.3728ZM161.161 24.7824C161.276 24.8186 161.398 24.8372 161.524 24.8372C161.398 24.8372 161.276 24.8176 161.161 24.7824ZM161.525 24.8372C161.562 24.8372 161.599 24.8352 161.635 24.8313C161.599 24.8352 161.562 24.8372 161.525 24.8372Z" fill="white"/>
<path d="M116.024 8.3856C116.357 8.3856 116.589 8.44237 116.905 8.55592C117.268 8.66457 117.679 8.59801 117.785 8.23192L118.239 6.67163C118.314 6.41419 118.233 6.12542 117.999 5.99719C117.791 5.88267 117.568 5.80828 117.233 5.72507C116.723 5.59293 116.367 5.52734 115.787 5.52734C114.171 5.52734 112.924 5.98349 112.046 6.9457C111.242 7.82667 110.975 8.83587 110.943 10.2552H109.248C108.937 10.2552 108.684 10.5087 108.684 10.8229V12.3363C108.684 12.6495 108.936 12.904 109.248 12.904H110.94V24.061C110.94 24.3742 111.192 24.6287 111.504 24.6287H113.571C113.882 24.6287 114.135 24.3752 114.135 24.061V12.9011L114.068 10.9179L114.135 12.9011H116.767C116.777 12.9001 116.785 12.9011 116.795 12.9011H116.798C117.525 12.9011 118.113 12.3089 118.113 11.5776C118.113 10.8464 117.525 10.2542 116.798 10.2542H116.795C116.785 10.2542 116.777 10.2552 116.767 10.2552H114.046C114.072 9.67769 114.178 9.33901 114.471 9.00815C114.822 8.59312 115.341 8.3856 116.026 8.3856H116.024Z" fill="white"/>
<path fill-rule="evenodd" clip-rule="evenodd" d="M104.174 6.18816C104.174 6.02763 104.296 5.9043 104.456 5.9043H106.148C106.307 5.9043 106.43 6.02763 106.43 6.18816V24.342C106.43 24.5025 106.307 24.6259 106.148 24.6259H104.456C104.296 24.6259 104.174 24.5025 104.174 24.342V22.7063C103.196 24.0963 101.806 24.9097 99.6344 24.9097C95.5748 24.9097 93.1787 21.5063 93.1787 17.3647C93.1787 13.2232 95.7061 9.87649 99.6344 9.87649C101.401 9.87649 102.998 10.6801 104.174 11.9947V6.18816ZM104.361 17.3931C104.361 20.2768 102.754 22.6124 100.058 22.6124C97.3609 22.6124 95.7538 20.2768 95.7538 17.3931C95.7538 14.5094 97.4076 12.1739 100.058 12.1739C102.708 12.1739 104.361 14.5094 104.361 17.3931Z" fill="white"/>
<path fill-rule="evenodd" clip-rule="evenodd" d="M71.2829 24.9092C75.1266 24.9092 78.2367 21.8934 78.2367 17.3926C78.2367 12.8918 75.1266 9.87598 71.2829 9.87598C67.4393 9.87598 64.3291 12.8546 64.3291 17.3926C64.3291 21.9306 67.4393 24.9092 71.2829 24.9092ZM71.2829 22.8008C73.7257 22.8008 75.6996 20.6825 75.6996 17.3926C75.6996 14.1027 73.7257 11.9844 71.2829 11.9844C68.8401 11.9844 66.8663 13.9979 66.8663 17.3926C66.8663 20.7873 68.8401 22.8008 71.2829 22.8008Z" fill="white"/>
<path d="M60.4766 6.18816C60.4766 6.02763 60.5991 5.9043 60.7587 5.9043H62.5438C62.7034 5.9043 62.826 6.02763 62.826 6.18816V24.342C62.826 24.5025 62.7034 24.6259 62.5438 24.6259H60.7587C60.5991 24.6259 60.4766 24.5025 60.4766 24.342V6.18816Z" fill="white"/>
<path d="M46.0049 17.3642C46.0049 15.8607 46.287 14.5461 46.8503 13.4312C47.4145 12.2967 48.1938 11.4177 49.1899 10.803C50.2143 10.1882 51.3701 9.87598 52.6669 9.87598C54.3489 9.87598 55.7303 10.3106 56.8111 11.1808C57.7976 11.956 58.4834 13.0152 58.8599 14.3298C58.9261 14.5657 58.7471 14.7928 58.5029 14.7928H56.8209C56.6516 14.7928 56.5018 14.6792 56.4453 14.5089C56.1914 13.7522 55.7692 13.1473 55.1583 12.6931C54.4909 12.1822 53.664 11.9277 52.6678 11.9277C51.371 11.9277 50.3282 12.4102 49.5295 13.3646C48.7308 14.3004 48.3358 15.6434 48.3358 17.374C48.3358 19.1046 48.7308 20.4848 49.5295 21.4402C50.3282 22.3955 51.371 22.8771 52.6678 22.8771C53.664 22.8771 54.5006 22.6314 55.1583 22.1303C55.7595 21.6859 56.1827 21.0711 56.4453 20.2861C56.5018 20.1256 56.6428 20.012 56.8121 20.012H58.4844C58.7286 20.012 58.9076 20.2391 58.8317 20.475C58.4367 21.7514 57.7509 22.792 56.7644 23.5956C55.6651 24.4844 54.2934 24.919 52.6484 24.919C51.3516 24.919 50.1959 24.6068 49.1812 23.992C48.2035 23.3587 47.4145 22.4787 46.8503 21.354C46.287 20.2195 46.0049 18.8863 46.0049 17.3642Z" fill="white"/>
<path d="M124.611 9.875C120.505 9.875 117.517 13.0524 117.517 17.3916C117.517 21.7309 120.505 24.9083 124.611 24.9083C128.718 24.9083 131.706 21.7309 131.706 17.3916C131.706 13.0524 128.718 9.875 124.611 9.875ZM124.611 21.8072C122.319 21.8072 120.806 20.0394 120.806 17.373C120.806 14.7066 122.319 12.9388 124.611 12.9388C125.448 12.9388 126.134 12.2487 126.134 11.4069C126.134 12.2487 125.458 12.9388 124.611 12.9388C126.904 12.9388 128.417 14.7164 128.417 17.373C128.417 20.0296 126.904 21.8072 124.611 21.8072Z" fill="white"/>
<path d="M140.587 9.875C140.561 9.875 140.537 9.87794 140.512 9.87892C140.527 9.87794 140.542 9.875 140.558 9.875H140.436C140.004 9.875 139.591 9.94156 139.186 10.0639C138.782 10.1961 138.406 10.3762 138.058 10.6219C137.711 10.849 137.391 11.1328 137.119 11.4725C136.911 11.7182 136.733 11.9923 136.592 12.2761V10.7256C136.592 10.4613 136.385 10.2528 136.122 10.2528H133.867C133.605 10.2528 133.397 10.4613 133.397 10.7256V24.1526C133.397 24.4169 133.605 24.6254 133.867 24.6254H136.122C136.385 24.6254 136.592 24.4169 136.592 24.1526V17.1841C136.592 16.6164 136.649 16.0966 136.762 15.615C136.874 15.1324 137.052 14.7076 137.316 14.3572C137.588 13.9881 137.937 13.6955 138.369 13.487C138.801 13.2785 139.233 13.0807 139.948 13.0807C140.107 13.0807 140.267 13.0905 140.436 13.0905C140.443 13.0905 140.45 13.0905 140.457 13.0905C140.302 13.0739 140.155 13.0318 140.017 12.9692C140.193 13.0465 140.384 13.0896 140.586 13.0896C141.413 13.0896 142.09 12.3711 142.09 11.4823C142.09 10.5935 141.422 9.875 140.586 9.875H140.587ZM139.906 12.9134C139.924 12.9232 139.942 12.9329 139.96 12.9418C139.942 12.9329 139.923 12.9232 139.906 12.9134Z" fill="white"/>
<path d="M140.457 13.0908C140.497 13.0947 140.537 13.0987 140.577 13.0996C140.537 13.0918 140.497 13.0908 140.457 13.0908Z" fill="white"/>
<path fill-rule="evenodd" clip-rule="evenodd" d="M79.7412 10.7267C79.7412 10.4624 79.9484 10.2539 80.2111 10.2539H81.5264C81.789 10.2539 81.9962 10.4624 81.9962 10.7267V19.8506C81.9962 21.0517 82.3066 21.5812 82.8329 22.1196C83.3592 22.6491 84.1764 22.8195 85.0976 22.8195C85.8302 22.8195 86.4606 22.7059 86.9869 22.4788C87.5317 22.2517 87.9831 21.9307 88.3401 21.5049C88.6971 21.0889 88.9608 20.5975 89.1291 20.0483C89.2886 19.5472 89.383 19.0176 89.4112 18.4508V10.7267C89.4112 10.4624 89.6184 10.2539 89.8811 10.2539H91.1963C91.459 10.2539 91.6662 10.4624 91.6662 10.7267V24.1527C91.6662 24.417 91.459 24.6255 91.1963 24.6255H89.8811C89.6184 24.6255 89.4112 24.417 89.4112 24.1527V22.4416C88.9131 23.2737 88.2934 23.8982 87.5501 24.3142C86.7612 24.7302 85.8302 24.9387 84.7591 24.9387C83.8008 24.9387 83.0022 24.8154 82.363 24.5697C81.7238 24.3054 81.2073 23.9363 80.8123 23.4538C80.4173 22.981 80.1362 22.4132 79.9669 21.7711C79.8161 21.1094 79.7412 20.6552 79.7412 19.9553V10.7267Z" fill="white"/>
<path d="M148.202 9.875C144.776 9.875 141.957 12.3916 141.625 16.4774C141.585 16.8239 141.563 17.1939 141.563 17.5796C141.563 17.7979 141.57 18.0122 141.584 18.2197C141.597 18.4194 141.615 18.6142 141.639 18.8002C142.036 22.3133 144.875 24.9092 148.305 24.9092C150.739 24.9092 152.487 24.0664 153.523 22.4699C153.548 22.4415 153.572 22.4122 153.595 22.3818L153.597 22.3779C153.619 22.3486 153.639 22.3182 153.659 22.2879C153.661 22.2839 153.663 22.281 153.666 22.2771C153.683 22.2477 153.7 22.2184 153.715 22.188C153.719 22.1812 153.722 22.1743 153.725 22.1675C153.739 22.1391 153.751 22.1117 153.763 22.0823C153.767 22.0715 153.771 22.0598 153.774 22.049C153.784 22.0226 153.793 21.9971 153.801 21.9697C153.806 21.9541 153.81 21.9374 153.813 21.9208C153.819 21.8983 153.825 21.8748 153.83 21.8513C153.835 21.8288 153.838 21.8043 153.841 21.7818C153.844 21.7642 153.846 21.7466 153.848 21.728C153.852 21.6859 153.855 21.6428 153.855 21.5997C153.855 21.5097 153.846 21.4216 153.829 21.3364C153.811 21.2513 153.786 21.17 153.753 21.0917C153.727 21.0291 153.695 20.9693 153.659 20.9126C153.644 20.8901 153.63 20.8666 153.614 20.845C153.524 20.7168 153.412 20.6062 153.282 20.5181C153.248 20.4946 153.212 20.4731 153.175 20.4525C152.991 20.3517 152.781 20.2949 152.557 20.2949C152.514 20.2949 152.47 20.2969 152.427 20.3018C152.407 20.3037 152.386 20.3076 152.367 20.3106C152.345 20.3135 152.323 20.3164 152.302 20.3204C152.273 20.3262 152.247 20.3341 152.22 20.3409C152.207 20.3448 152.195 20.3468 152.182 20.3507C152.15 20.3605 152.119 20.3722 152.088 20.384C152.081 20.3869 152.074 20.3889 152.067 20.3918C152.032 20.4065 151.999 20.4222 151.966 20.4388C151.963 20.4398 151.96 20.4417 151.958 20.4427C151.923 20.4613 151.889 20.4819 151.855 20.5034C151.788 20.5475 151.725 20.5984 151.666 20.6532H151.665L151.653 20.6659C151.647 20.6708 151.642 20.6767 151.636 20.6816L151.292 21.0154C150.611 21.7456 149.649 22.1998 148.583 22.1998C146.421 22.1068 145.213 20.8587 144.838 18.3715C144.838 18.3196 144.84 18.2687 144.842 18.2178C144.842 18.207 144.842 18.1953 144.842 18.1845H153.826C154.319 18.1845 154.719 17.7822 154.719 17.2859V16.3609C154.533 12.3554 152.313 9.87305 148.201 9.87305L148.202 9.875ZM144.914 15.6649C145.262 13.8374 146.623 12.5835 148.248 12.5835C149.872 12.5835 151.437 13.5604 151.609 15.6649H144.914Z" fill="white"/>
<defs>
<linearGradient id="paint0_linear_4689_1667" x1="0.912076" y1="23.3574" x2="17.2318" y2="11.7849" gradientUnits="userSpaceOnUse">
<stop stop-color="white"/>
<stop offset="1" stop-color="white" stop-opacity="0.5"/>
</linearGradient>
<linearGradient id="paint1_linear_4689_1667" x1="19.4339" y1="15.4886" x2="16.7177" y2="0.00880127" gradientUnits="userSpaceOnUse">
<stop stop-color="white" stop-opacity="0.5"/>
<stop offset="1" stop-color="white"/>
</linearGradient>
<linearGradient id="paint2_linear_4689_1667" x1="26.38" y1="9.64024" x2="34.9177" y2="26.6812" gradientUnits="userSpaceOnUse">
<stop stop-color="white" stop-opacity="0.5"/>
<stop offset="1" stop-color="white"/>
</linearGradient>
</defs>
</svg>
